<svg width="236" height="193" viewBox="0 0 236 193" fill="none" xmlns="http://www.w3.org/2000/svg">
<path d="M113.024 155.894C118.717 154.272 120.011 155.061 121.665 157.922C128.085 129.134 118.611 113.968 107.5 106.903L117 96.9999C133.102 104.713 151.155 120.549 149.531 147.226C158.07 128.161 164.274 134.598 170.712 137.134C169.695 124.965 188.247 108.486 209.085 116.852C225.756 123.545 226.028 142.627 224.079 151.331C245.68 165.275 233.058 188.345 224.079 192.655H57.6239C55.0826 192.909 50 190.627 50 179.472C50 168.317 59.9958 165.021 64.9937 164.768C63.4689 158.092 65.2478 143.827 84.5617 140.176C103.876 136.525 111.584 149.134 113.024 155.894Z" fill="#46D5EE"/>
<path d="M97.3168 119.573L87.8926 102.024C86.7861 99.9638 87.2556 97.4117 89.0229 95.8801L106.08 81.0973C107.555 79.8189 109.639 79.5158 111.417 80.3209L128.417 88.0192C131.6 89.4605 132.361 93.6388 129.89 96.1095L105.257 120.743C102.887 123.113 98.9026 122.525 97.3168 119.573Z" fill="#063F58"/>
<path d="M49.0528 125.974C25.5205 83.2293 4.74301 27.4504 14.4401 17.2917C24.399 6.85876 65.8421 14.8667 125.119 47.7146C130.363 50.6208 131.76 57.5237 128.083 62.2603C105.968 90.7542 91.4926 104.809 63.9736 128.544C59.2729 132.599 52.0466 131.412 49.0528 125.974Z" fill="#E3D6BD"/>
<circle cx="66" cy="62.9999" r="27" stroke="#063F58" stroke-width="2"/>
<path d="M17.5001 47.9995C30.9811 39.782 37.8263 32.4125 49.5001 16.9995M36.2757 101.195C49.7137 105.275 57.9361 109.378 73.7757 119.195M100.5 35.9995C105.779 50.7849 109.712 58.35 120.5 68.9995" stroke="#063F58" stroke-width="2" stroke-linecap="round"/>
<circle cx="66" cy="62.9999" r="23" fill="#FDC93A" stroke="#063F58" stroke-width="2"/>
<path d="M55 56.4999L56.5 62.4999M65 53.9999L65.5 56.4999L66 58.9999M57.5 68.9999C64 72.9999 72 67.4999 72 60.4999M81 78.9999C81 78.9999 75.5 69.4999 76.5 66.9999C77.5 64.4999 80 65.9999 80 65.9999L82 70.9999C82 70.9999 78.5 61.4999 79 58.9999C79.5 56.4999 82.5 55.4999 82.5 55.4999L85 65.4999C85 65.4999 82.875 56.9999 82.5 53.9999C82.125 50.9999 85.5 50.9999 85.5 50.9999" stroke="#063F58" stroke-width="2" stroke-linecap="round" stroke-linejoin="bevel"/>
</svg>
