<svg width="139" height="434" viewBox="0 0 139 434" fill="none" xmlns="http://www.w3.org/2000/svg">
<path d="M2.2071 90C4.60711 132 45.5404 171.833 65.7071 186.5L57.207 199C67.607 205.8 77.207 200.833 80.707 197.5L71.207 186.5C92.5404 171 135.507 128.7 136.707 83.5C138.207 27 102.207 2 65.7071 2C29.2071 2 -0.792895 37.5 2.2071 90Z" fill="#CFE9A3" stroke="black" stroke-width="3"/>
<path d="M55.2071 18C49.8737 18.3333 38.8071 21.2 37.2071 30C35.2071 41 67.2071 18 55.2071 18Z" fill="white"/>
<path d="M12.7066 102.5C6.30657 69.7 18.7066 47.5 25.7066 40.5C38.7066 33 30.707 62.5 22.707 74C14.707 85.5 20.7066 143.5 12.7066 102.5Z" fill="white"/>
<path d="M68.5468 202C68.5468 202 81.0467 210.5 78.5468 225C76.0469 239.5 54.0005 247.377 55.5468 265.5C57.3074 286.136 92.9988 282.289 93.0468 303C93.0901 321.726 79.5959 347.745 62.5468 340C57.6297 337.766 52.6529 336.367 52.0468 331C51.223 323.706 61.4625 320.08 68.5468 322C75.0316 323.758 78.7306 327 82.2307 334C85.7308 341 85.5468 351 85.5468 351C85.5468 378 58.0468 378 58.0468 407C58.0468 419.5 70.8801 423.833 78.5468 432" stroke="black" stroke-width="3"/>
</svg>
