<svg width="139" height="433" viewBox="0 0 139 433" fill="none" xmlns="http://www.w3.org/2000/svg">
<path d="M2.2071 90C4.60711 132 45.5404 171.833 65.7071 186.5L57.207 199C67.607 205.8 77.207 200.833 80.707 197.5L71.207 186.5C92.5404 171 135.507 128.7 136.707 83.5C138.207 27 102.207 2 65.7071 2C29.2071 2 -0.792895 37.5 2.2071 90Z" fill="#FBA3A3" stroke="black" stroke-width="3"/>
<path d="M57.2071 18C51.8737 18.3333 40.8071 21.2 39.2071 30C37.2071 41 69.2071 18 57.2071 18Z" fill="white"/>
<path d="M14.7066 102.5C8.30657 69.7 20.7066 47.5 27.7066 40.5C40.7066 33 32.707 62.5 24.707 74C16.707 85.5 22.7066 143.5 14.7066 102.5Z" fill="white"/>
<path d="M69.1504 202C69.1504 202 62.7741 218.73 62.5797 231.003C62.2959 248.932 75.3907 252.876 74.991 270.798C74.5251 291.694 56.4277 290.368 56.009 311.267C55.6009 331.646 69.1212 334.308 72.4358 353.76C77.4906 383.423 64.4049 432 64.4049 432" stroke="black" stroke-width="3"/>
</svg>
