<svg width="139" height="433" viewBox="0 0 139 433" fill="none" xmlns="http://www.w3.org/2000/svg">
<path d="M68.5458 202C68.5458 202 90.6818 230.318 90.8652 255.709C91.0256 277.903 86.3953 311.014 69.3295 305.626C59.1012 302.397 47.7937 291.093 51.8003 279.72C55.807 268.346 94.3487 297.904 96.8752 326.478C99.9469 361.216 45.3231 347.502 41.2828 382.082C38.9513 402.038 51.8003 432 51.8003 432" stroke="black" stroke-width="3"/>
<path d="M2.2071 90C4.60711 132 45.5404 171.833 65.7071 186.5L57.207 199C67.607 205.8 77.207 200.833 80.707 197.5L71.207 186.5C92.5404 171 135.507 128.7 136.707 83.5C138.207 27 102.207 2 65.7071 2C29.2071 2 -0.792895 37.5 2.2071 90Z" fill="#FBA3A3" stroke="black" stroke-width="3"/>
<path d="M55.2071 18C49.8737 18.3333 38.8071 21.2 37.2071 30C35.2071 41 67.2071 18 55.2071 18Z" fill="white"/>
<path d="M12.7066 102.5C6.30657 69.7 18.7066 47.5 25.7066 40.5C38.7066 33 30.707 62.5 22.707 74C14.707 85.5 20.7066 143.5 12.7066 102.5Z" fill="white"/>
</svg>
