<svg width="139" height="433" viewBox="0 0 139 433" fill="none" xmlns="http://www.w3.org/2000/svg">
<path d="M70.7718 202C70.7718 202 67.0812 220.447 67.2222 232.49C67.4193 249.313 77.5928 257.683 75.3355 274.248C72.856 292.443 57.0809 293.47 53.5311 312.029C50.327 328.781 62.1255 345.833 75.3355 345.833C80.3853 345.833 84.5112 341.629 84.97 335.228C85.5658 326.916 77.1565 324.802 70.7718 324.622C58.6415 324.282 54.4618 345.592 57.0807 361.078C61.116 384.939 78.147 386.576 75.3355 406.15C73.6428 417.935 62.6585 432 62.6585 432" stroke="black" stroke-width="3"/>
<path d="M2.2071 90C4.60711 132 45.5404 171.833 65.7071 186.5L57.207 199C67.607 205.8 77.207 200.833 80.707 197.5L71.207 186.5C92.5404 171 135.507 128.7 136.707 83.5C138.207 27 102.207 2 65.7071 2C29.2071 2 -0.792895 37.5 2.2071 90Z" fill="#FFCB89" stroke="black" stroke-width="3"/>
<path d="M55.2071 18C49.8737 18.3333 38.8071 21.2 37.2071 30C35.2071 41 67.2071 18 55.2071 18Z" fill="white"/>
<path d="M12.7066 102.5C6.30657 69.7 18.7066 47.5 25.7066 40.5C38.7066 33 30.707 62.5 22.707 74C14.707 85.5 20.7066 143.5 12.7066 102.5Z" fill="white"/>
</svg>
