<svg width="191" height="175" viewBox="0 0 191 175" fill="none" xmlns="http://www.w3.org/2000/svg">
<path d="M39.7095 70.6229C34.4007 76.2553 36.5196 86.2207 43.5234 88.5605C47.1002 90.1168 50.5046 91.5772 53.7807 92.9553C53.7807 92.9553 51.9457 108.878 44.7852 113.33C39.4044 116.676 30.4632 113.888 25.5535 111.899C23.4557 111.049 20.9848 111.481 19.5175 113.204C12.9859 120.875 10.989 125.699 7.65116 132.798C7.25014 133.65 8.15193 134.577 9.02153 134.214C11.953 132.99 16.7658 131.17 20.1659 130.844C25.3738 130.343 34.7719 140.942 53.7806 134.847C68.2491 130.207 76.9795 102.086 76.9795 102.086C82.3822 104.033 87.7273 105.815 93.2969 107.519C93.2969 107.519 106.033 122.456 107.797 135.347C109.43 147.278 102.315 164.488 99.1974 171.304C98.5762 172.661 99.5664 174.242 101.06 174.242H126.885C128.517 174.242 129.462 172.394 128.507 171.072L124.297 165.242C124.297 165.242 132.966 147.093 130.797 134.847C129.301 126.399 121.797 113.33 121.797 113.33C122.942 113.604 125.114 113.053 126.297 113.33C139.806 112.504 137.797 107.519 137.797 98.7424C137.797 98.7424 158.607 106.733 168.797 97.2424C176.644 89.9334 174.933 75.521 173.843 69.6961C173.602 68.4068 174.581 67.1648 175.893 67.1648H179.158C179.864 67.1648 180.518 66.7923 180.878 66.1848L181.716 64.7715C182.076 64.164 182.73 63.7915 183.436 63.7915H187.554C188.315 63.7915 189.014 63.3613 189.34 62.6736C190.319 60.6048 190.776 59.2548 190.528 57.9891C190.432 57.4951 190.039 57.1263 189.58 56.92C179.674 52.4691 173.424 49.854 160.642 48.9819C158.38 48.8276 156.326 50.2869 155.686 52.4622C153.478 59.9719 152.373 65.3356 152.675 73.4029C152.721 74.6307 151.69 75.6421 150.467 75.5312L137.797 74.3824C136.968 49.9534 133.108 35.0981 124.297 6.74244C122.602 -1.22983 108.131 -1.96968 102.822 3.66275C82.8715 20.7482 70.4468 33.2362 57.3089 48.7799C57.3089 48.7799 42.3026 39.4195 32.0011 42.7752C19.561 46.8275 17.7977 65.9672 14.0101 68.7954C10.2225 71.6237 7.51272 67.8634 4.0677 69.7962C0.826095 71.6149 -0.666222 75.3005 0.281216 78.3028C1.22865 81.3052 15.9039 86.3091 21.1118 85.8087C26.3197 85.3083 36.2621 63.7915 36.2621 63.7915L42.4169 67.1648C41.5285 68.2957 40.6266 69.4479 39.7095 70.6229Z" fill="#7BBB96"/>
<path d="M95 39C98.6389 42.9817 100.758 42.8342 104.5 40.5" stroke="#063F58" stroke-width="2" stroke-linecap="round" stroke-linejoin="bevel"/>
<path d="M111.5 44C114.181 47.797 115.742 47.6564 118.5 45.4304" stroke="#063F58" stroke-width="2" stroke-linecap="round" stroke-linejoin="bevel"/>
<path d="M103.5 53C106.181 56.797 107.742 56.6564 110.5 54.4304" stroke="#063F58" stroke-width="2" stroke-linecap="round" stroke-linejoin="bevel"/>
<path d="M167 66.5232C170.5 67 171 67 174 67" stroke="#063F58" stroke-width="2" stroke-linecap="round" stroke-linejoin="bevel"/>
<path d="M182 58C185.5 58.4768 186 58.4768 189 58.4768" stroke="#063F58" stroke-width="2" stroke-linecap="round" stroke-linejoin="bevel"/>
<path d="M1.5 73H9M11.5 69L9 75.5M16 69V73" stroke="#063F58" stroke-width="2" stroke-linecap="round" stroke-linejoin="bevel"/>
<path d="M174 63C176.322 62.0722 177.946 62.2208 181 63.4768" stroke="#063F58" stroke-width="2" stroke-linecap="round" stroke-linejoin="bevel"/>
</svg>
