<svg width="213" height="144" viewBox="0 0 213 144" fill="none" xmlns="http://www.w3.org/2000/svg">
<path d="M138.161 32.7396L147.854 12.3441L168.451 21.6331L155.527 42.2305L138.161 32.7396Z" fill="#003F58"/>
<path d="M54.9635 36.5763L44.4629 21.6331L58.8003 9.11316L70.1086 28.297L54.9635 36.5763Z" fill="#003F58"/>
<path d="M58.3957 91.7045L52.5396 106.042H20.23L3.85716 94.9355H0L11.1429 139.967H205.808C208.635 126.034 213.886 97.5203 212.27 94.9355C210.655 92.3507 204.462 99.3781 201.568 103.215H170.672L166.431 91.7045C171.345 88.339 184.04 79.6692 195.51 71.9149C206.98 64.1606 204.327 52.5292 201.568 47.6827C198.673 42.9037 191.188 29.9126 184.403 16.1808C177.618 2.44899 169.595 -0.310442 166.431 0.0263202C160.71 0.632024 148.984 3.66091 147.853 10.9308C146.439 20.0182 163.806 22.2392 167.643 21.0276C170.712 20.0583 168.114 27.0856 166.431 30.7205L170.672 56.1643L153.911 65.6552L128.871 16.1808C127.256 11.4017 121.399 1.84343 110.899 1.84343C100.398 1.84343 93.7344 11.4017 91.715 16.1808L67.2809 67.8765L46.4816 56.1643L52.5396 30.7205C49.8471 29.105 44.4218 25.147 44.2603 22.2392C44.0583 18.6043 52.5396 17.7966 56.1744 22.2392C59.8093 26.6818 69.5022 20.0179 69.3002 8.50759C69.1387 -0.700646 58.0592 0.228052 52.5396 1.84343C49.376 4.73794 42.2005 10.1231 38.808 8.50759C35.4155 6.89211 35.5098 3.3917 35.9809 1.84343C35.1732 0.497197 32.8711 -1.38753 30.1248 1.84343C27.3785 5.07439 31.2691 12.7479 33.5577 16.1808C32.1442 19.0752 27.4997 28.6604 20.23 43.8459C12.9603 59.0314 18.4126 67.5396 22.0474 69.8956L58.3957 91.7045Z" fill="#F05C40"/>
<path d="M103.227 35.3646V41.8265M114.939 35.3646V41.8265M107.063 52.731C110.362 53.1349 117.806 52.5695 121.199 47.0769" stroke="black" stroke-width="3" stroke-linecap="round"/>
<path d="M64.6538 144.006H42.0371L61.8267 110.687L73.539 130.072L64.6538 144.006Z" fill="#073E55"/>
<path d="M84.646 110.686H62.0293L81.8189 144.006L93.5312 124.014L84.646 110.686Z" fill="#D4B6EC"/>
<path d="M104.435 144.006H81.8184L101.608 110.687L113.32 130.072L104.435 144.006Z" fill="#073E55"/>
<path d="M124.427 110.686H101.811L121.6 144.006L133.312 124.014L124.427 110.686Z" fill="#D4B6EC"/>
<path d="M144.419 143.198H121.803L141.592 109.879L153.305 129.264L144.419 143.198Z" fill="#073E55"/>
<path d="M164.41 109.879H141.793L161.583 143.198H185.007L164.41 109.879Z" fill="#D4B6EC"/>
<path d="M84.2417 110.485H61.625L81.4146 77.1652L93.1269 96.551L84.2417 110.485Z" fill="#073E55"/>
<path d="M104.234 77.1653H81.6172L101.407 110.485L113.119 90.493L104.234 77.1653Z" fill="#D4B6EC"/>
<path d="M124.224 109.677H101.607L121.397 76.3575L133.109 95.7433L124.224 109.677Z" fill="#073E55"/>
<path d="M144.216 76.3575H121.6L141.389 109.677H164.814L144.216 76.3575Z" fill="#D4B6EC"/>
</svg>
