<svg width="56" height="56" viewBox="0 0 56 56" fill="none" xmlns="http://www.w3.org/2000/svg">
<path d="M32.2676 0C32.2676 0 32.8463 3.61265 33.4717 8.6084C34.9468 8.97589 36.3582 9.50331 37.6875 10.1709C41.6921 6.95239 44.6904 4.69043 44.6904 4.69043L50.9678 10.9678C50.9631 10.9743 48.9005 13.821 45.9102 17.6748C46.8591 19.1977 47.6129 20.854 48.1387 22.6094C52.7276 23.2023 56 23.7324 56 23.7324V32.6094C56 32.6094 52.8353 33.0567 48.3682 33.5645C47.8937 35.4317 47.1632 37.1963 46.2158 38.8193C48.7952 42.1797 50.5404 44.5952 50.5654 44.6299L44.2881 50.9072C44.2551 50.8824 41.843 49.0662 38.4902 46.4033C36.897 47.2943 35.1729 47.9782 33.3535 48.4199C32.7756 52.8607 32.2676 56 32.2676 56H23.3906C23.3906 56 22.9235 52.6972 22.4023 48.0771C20.7033 47.5485 19.0997 46.8039 17.6221 45.877C14.034 48.6416 11.4063 50.5393 11.3701 50.5654L5.09277 44.2881C5.11941 44.2527 7.2094 41.4764 10.1953 37.7383C9.54535 36.453 9.02675 35.0901 8.65723 33.667C3.63735 33.1181 0 32.6094 0 32.6094V23.7324C0 23.7324 3.75115 23.131 8.89453 22.4922C9.29989 21.1678 9.8359 19.9005 10.4873 18.7051C7.10171 14.5054 4.69043 11.3096 4.69043 11.3096L10.9678 5.03223C10.9749 5.03736 14.1852 7.3621 18.4023 10.6553C19.6283 9.96007 20.9331 9.38823 22.2998 8.95508C22.8608 3.78182 23.3906 0 23.3906 0H32.2676ZM28 22C24.6863 22 22 24.6863 22 28C22 31.3137 24.6863 34 28 34C31.3137 34 34 31.3137 34 28C34 24.6863 31.3137 22 28 22Z" fill="#FFCC33"/>
<path d="M32.2676 0C32.2676 0 32.8463 3.61265 33.4717 8.6084C34.9468 8.97589 36.3582 9.50331 37.6875 10.1709C41.6921 6.95239 44.6904 4.69043 44.6904 4.69043L50.9678 10.9678C50.9631 10.9743 48.9005 13.821 45.9102 17.6748C46.8591 19.1977 47.6129 20.854 48.1387 22.6094C52.7276 23.2023 56 23.7324 56 23.7324V32.6094C56 32.6094 52.8353 33.0567 48.3682 33.5645C47.8937 35.4317 47.1632 37.1963 46.2158 38.8193C48.7952 42.1796 50.5404 44.5952 50.5654 44.6299L44.2881 50.9072C44.2551 50.8824 41.843 49.0662 38.4902 46.4033C36.897 47.2943 35.1729 47.9782 33.3535 48.4199C32.7756 52.8607 32.2676 56 32.2676 56H28V34C31.3137 34 34 31.3137 34 28C34 24.6863 31.3137 22 28 22V0H32.2676Z" fill="#FEA832"/>
<path d="M28 22C24.6863 22 22 24.6863 22 28C22 31.3137 24.6863 34 28 34V39C21.9249 39 17 34.0751 17 28C17 21.9249 21.9249 17 28 17V22Z" fill="#FEA832"/>
<path d="M28 17C34.0751 17 39 21.9249 39 28C39 34.0751 34.0751 39 28 39V34C31.3137 34 34 31.3137 34 28C34 24.6863 31.3137 22 28 22V17Z" fill="#FE9923"/>
</svg>
