<svg width="64" height="64" viewBox="0 0 64 64" fill="none" xmlns="http://www.w3.org/2000/svg">
<path d="M13 39C13 25.1929 24.1929 14 38 14C51.8071 14 63 25.1929 63 39C63 52.8071 51.8071 64 38 64H13V39Z" fill="#00C5E8"/>
<path d="M42.1459 29.4367C42.8188 31.7295 45.2229 33.0427 47.5157 32.3698C49.8085 31.6969 51.1217 29.2928 50.4488 27" stroke="black" stroke-width="2"/>
<path d="M25.1035 34.8212C25.7764 37.114 28.1805 38.4272 30.4733 37.7543C32.7661 37.0815 34.0793 34.6773 33.4064 32.3845" stroke="black" stroke-width="2"/>
<path d="M30 46.8421C40.4389 47.5588 45.1251 45.9871 51 39" stroke="black" stroke-width="2"/>
<path d="M48.6312 24L48.4272 23.1757L50.1365 17.6422L47.2834 18.5779L47 17.4328L51.3688 16L51.5728 16.8243L49.8607 22.3587L52.7166 21.4221L53 22.5672L48.6312 24Z" fill="#6061CA"/>
<path d="M53.6312 18L53.4272 17.1757L55.1365 11.6422L52.2834 12.5779L52 11.4328L56.3688 10L56.5728 10.8243L54.8607 16.3587L57.7166 15.4221L58 16.5672L53.6312 18Z" fill="#6363D2"/>
<path d="M59.6312 18L59.4272 17.1757L61.1365 11.6422L58.2834 12.5779L58 11.4328L62.3688 10L62.5728 10.8243L60.8607 16.3587L63.7166 15.4221L64 16.5672L59.6312 18Z" fill="#6865EE"/>
<circle cx="7" cy="7" r="7" fill="#00C5E8"/>
</svg>
