<svg width="958" height="616" viewBox="0 0 958 616" fill="none" xmlns="http://www.w3.org/2000/svg">
<path d="M267.103 534.502C279.712 530.907 282.001 526 286.242 538.996C336.001 421 266.112 226.656 241.501 211L258.001 193C315.501 245 370.501 421.696 370.501 489C376.501 455 401.001 453 412.001 469.5C409.749 442.535 435.258 397.5 485.001 397.5C520.501 397.5 602.001 427.5 581.001 511.5C636.573 504.115 656.428 542.956 658.661 575.5C670.94 559.667 706.4 539 750 583C747.167 572 746.6 549.3 767 546.5C787.4 543.7 790.5 559.333 789.5 567.5C795 562.167 808.5 556.3 818.5 575.5C839 565.693 885.4 556.92 907 600.289C918.167 590.166 944 579.127 958 615.959H647.501H144.388C143.866 616.012 143.295 616.015 142.689 615.959H-43.4993L-91 495.5C-68.8331 500.167 -28.2993 502.4 -43.4993 474C-62.4993 438.5 -12.4993 400.5 51.5007 441.5C93.1463 468.179 98.5801 503.502 94.763 525.89C99.5543 516.209 109.399 507.068 127.501 509.5C148.729 512.351 157.225 530.309 159.793 544.306C160.19 528.317 169.318 506.241 204.057 499.672C246.838 491.583 263.913 519.522 267.103 534.502Z" fill="#46D5EE"/>
<path d="M217.136 226.297L195.045 185.48C193.925 183.411 194.399 180.842 196.182 179.309L232.905 147.729C234.376 146.464 236.445 146.164 238.214 146.959L278.364 164.999C281.564 166.437 282.327 170.638 279.836 173.109L225.055 227.466C222.687 229.816 218.724 229.231 217.136 226.297Z" fill="#063F58"/>
<path d="M128.937 242.076C82.7922 161.599 40.0697 50.4727 58.9483 30.8486C78.0957 10.9451 159.314 27.1159 275.007 92.1967C280.257 95.1504 281.645 102.099 277.966 106.87C230.916 167.889 203.289 194.058 143.909 244.588C139.204 248.592 132.01 247.435 128.937 242.076Z" fill="#E3D6BD"/>
<path d="M155.626 64.7946C184.076 64.7948 207.126 87.6775 207.126 115.888C207.126 144.099 184.076 166.982 155.626 166.982C127.176 166.982 104.125 144.099 104.125 115.888C104.125 87.6774 127.176 64.7946 155.626 64.7946Z" stroke="#063F58" stroke-width="2"/>
<path d="M64.687 87.9804C89.9643 72.6917 102.799 58.9808 124.688 30.3049M99.8918 186.95C125.088 194.541 140.505 202.176 170.205 220.439M220.314 65.6544C230.211 93.1626 237.586 107.237 257.814 127.051" stroke="#063F58" stroke-width="2" stroke-linecap="round"/>
<path d="M155.626 72.2366C179.934 72.2369 199.626 91.7881 199.626 115.889C199.626 139.99 179.934 159.54 155.626 159.54C131.318 159.54 111.625 139.99 111.625 115.889C111.625 91.788 131.318 72.2366 155.626 72.2366Z" fill="#FDC93A" stroke="#063F58" stroke-width="2"/>
<path d="M135 103.795L137.813 114.958M153.75 99.1441L154.688 103.795L155.625 108.447M139.688 127.052C151.875 134.494 166.875 124.261 166.875 111.237M183.751 145.657C183.751 145.657 173.438 127.982 175.313 123.331C177.188 118.679 181.876 121.47 181.876 121.47L185.626 130.773C185.626 130.773 179.063 113.098 180.001 108.447C180.938 103.795 186.563 101.935 186.563 101.935L191.251 120.54C191.251 120.54 187.266 104.726 186.563 99.1441C185.86 93.5626 192.188 93.5626 192.188 93.5626" stroke="#063F58" stroke-width="2" stroke-linecap="round" stroke-linejoin="bevel"/>
</svg>
