<svg width="140" height="230" viewBox="0 0 140 230" fill="none" xmlns="http://www.w3.org/2000/svg">
<path d="M139.723 173.938C132.126 168.818 107.815 158.182 71.348 156.596C49.4738 155.645 31.2601 159.757 18.3325 164.591C9.70832 167.815 3.43664 171.36 0 173.938C8.09271 191.775 33.6921 227.944 71.348 229.926C109.004 231.908 132.621 193.426 139.723 173.938Z" fill="#681B21"/>
<path d="M24.7733 188.307C18.8276 186.325 16.8457 166.506 16.8457 165.515C16.8457 164.524 27.0853 161.433 34.1872 160.065C33.5266 170.304 30.7189 190.288 24.7733 188.307Z" fill="#FDF4EB"/>
<path d="M127.831 167.992C121.886 165.515 118.168 164.972 111.976 163.038C111.151 170.139 109.994 185.136 111.976 188.307C113.958 191.478 117.427 189.628 118.913 188.307C118.913 188.307 133.777 170.47 127.831 167.992Z" fill="#FDF4EB"/>
<circle cx="70.6294" cy="63.4204" r="63.4204" fill="white"/>
<circle cx="70.63" cy="63.4202" r="28.7374" fill="#681B21"/>
<circle cx="86.4842" cy="48.5562" r="7.92756" fill="white"/>
<path d="M81.1685 56.4638C81.1685 58.6529 79.172 60.4276 76.7092 60.4276C74.2465 60.4276 72.25 58.6529 72.25 56.4638C72.25 54.2746 74.2465 52.5 76.7092 52.5C79.172 52.5 81.1685 54.2746 81.1685 56.4638Z" fill="white"/>
</svg>
