<svg width="1194" height="626" viewBox="0 0 1194 626" fill="none" xmlns="http://www.w3.org/2000/svg">
<path d="M601.048 221.621C444.454 221.621 342.294 341.952 310.788 402.118C248.777 548.5 278.277 618 332.131 705.794H1220.59C1247.43 659.45 1284.99 533.833 1220.59 402.118C1156.2 270.404 1022.62 233.41 963.873 231.377C1001.68 210.441 1067.9 154.544 1030.34 98.4431C992.777 42.3424 898.422 114.094 855.94 156.983C863.055 107.387 860.087 6.60888 791.303 0.267074C722.518 -6.07474 720.77 102.102 728.494 156.983C694.549 118.363 613.244 52.5869 559.583 98.4431C505.921 144.299 564.867 199.668 601.048 221.621Z" fill="#F57D31"/>
<path d="M297.099 650.951C258.351 609.791 175.161 498.394 152.387 382.082C124.673 386.993 62.7018 385.955 36.5308 342.512C3.81707 288.208 17.009 236.997 102.563 282.445C78.774 257.033 74.8636 219.593 80.3545 197.86C83.8654 183.73 108.526 152.332 143.3 189.293C173.643 221.545 175.61 254.96 171.902 272.669C180.097 246.477 200.305 207.185 229.731 218.42C269.821 233.725 261.279 345.644 178.931 367.058C197.075 432.308 262.282 572.897 377.954 613.25L297.099 650.951Z" fill="#F57D31"/>
<ellipse cx="531.277" cy="381" rx="29" ry="28" fill="#F55F31"/>
<ellipse cx="1026.28" cy="381" rx="29" ry="28" fill="#F55F31"/>
<path d="M604.843 338.04C610.745 322.5 632.962 299 673.745 299C714.245 299 735.745 324.5 746.314 338.04M804.854 338.04C810.245 326.5 825.745 299 871.245 299C919.245 299 938.398 329.5 938.398 338.04M539.666 405C616.906 467.808 822.364 555.74 1026.28 405" stroke="#3E3D3D" stroke-width="18" stroke-linecap="round"/>
</svg>
