<svg width="1121" height="676" viewBox="0 0 1121 676" fill="none" xmlns="http://www.w3.org/2000/svg">
<g filter="url(#filter0_d_1020_507)">
<path d="M0.0195312 171V103.8H22.6755V153.432H53.0115V171H0.0195312Z" fill="#606506"/>
<path d="M87.5895 171.96C81.1895 171.96 75.5895 170.776 70.7895 168.408C66.0535 166.04 62.3735 162.808 59.7495 158.712C57.1255 154.552 55.8135 149.88 55.8135 144.696C55.8135 139.384 57.0935 134.68 59.6535 130.584C62.2775 126.488 65.8295 123.288 70.3095 120.984C74.8535 118.68 79.9415 117.528 85.5735 117.528C90.7575 117.528 95.5255 118.552 99.8775 120.6C104.294 122.648 107.814 125.688 110.438 129.72C113.126 133.752 114.47 138.744 114.47 144.696C114.47 145.464 114.438 146.328 114.374 147.288C114.31 148.184 114.246 149.016 114.182 149.784H73.7655V139.32H102.662L94.5015 142.104C94.5015 140.056 94.1175 138.328 93.3495 136.92C92.6455 135.448 91.6535 134.328 90.3735 133.56C89.0935 132.728 87.5575 132.312 85.7655 132.312C83.9735 132.312 82.4055 132.728 81.0615 133.56C79.7815 134.328 78.7895 135.448 78.0855 136.92C77.3815 138.328 77.0295 140.056 77.0295 142.104V145.368C77.0295 147.608 77.4775 149.528 78.3735 151.128C79.2695 152.728 80.5495 153.944 82.2135 154.776C83.8775 155.544 85.8935 155.928 88.2615 155.928C90.6935 155.928 92.6775 155.608 94.2135 154.968C95.8135 154.328 97.4775 153.368 99.2055 152.088L110.534 163.512C107.974 166.264 104.806 168.376 101.03 169.848C97.3175 171.256 92.8375 171.96 87.5895 171.96Z" fill="#606506"/>
<path d="M146.66 171.96C139.428 171.96 133.796 170.232 129.764 166.776C125.732 163.256 123.716 157.88 123.716 150.648V106.68H145.412V150.456C145.412 152.056 145.828 153.304 146.66 154.2C147.556 155.096 148.644 155.544 149.924 155.544C151.78 155.544 153.412 155.064 154.82 154.104L160.004 169.176C158.34 170.136 156.324 170.84 153.956 171.288C151.652 171.736 149.22 171.96 146.66 171.96ZM116.516 137.208V121.368H156.164V137.208H116.516Z" fill="#606506"/>
<path d="M189.879 171.96C182.647 171.96 177.015 170.232 172.983 166.776C168.951 163.256 166.935 157.88 166.935 150.648V106.68H188.631V150.456C188.631 152.056 189.047 153.304 189.879 154.2C190.775 155.096 191.863 155.544 193.143 155.544C194.999 155.544 196.631 155.064 198.039 154.104L203.223 169.176C201.559 170.136 199.543 170.84 197.175 171.288C194.871 171.736 192.439 171.96 189.879 171.96ZM159.735 137.208V121.368H199.383V137.208H159.735Z" fill="#606506"/>
<path d="M236.277 171.96C229.877 171.96 224.277 170.776 219.477 168.408C214.741 166.04 211.061 162.808 208.437 158.712C205.813 154.552 204.501 149.88 204.501 144.696C204.501 139.384 205.781 134.68 208.341 130.584C210.965 126.488 214.517 123.288 218.997 120.984C223.541 118.68 228.629 117.528 234.261 117.528C239.445 117.528 244.213 118.552 248.565 120.6C252.981 122.648 256.501 125.688 259.125 129.72C261.813 133.752 263.157 138.744 263.157 144.696C263.157 145.464 263.125 146.328 263.061 147.288C262.997 148.184 262.933 149.016 262.869 149.784H222.453V139.32H251.349L243.189 142.104C243.189 140.056 242.805 138.328 242.037 136.92C241.333 135.448 240.341 134.328 239.061 133.56C237.781 132.728 236.245 132.312 234.453 132.312C232.661 132.312 231.093 132.728 229.749 133.56C228.469 134.328 227.477 135.448 226.773 136.92C226.069 138.328 225.717 140.056 225.717 142.104V145.368C225.717 147.608 226.165 149.528 227.061 151.128C227.957 152.728 229.237 153.944 230.901 154.776C232.565 155.544 234.581 155.928 236.949 155.928C239.381 155.928 241.365 155.608 242.901 154.968C244.501 154.328 246.165 153.368 247.893 152.088L259.221 163.512C256.661 166.264 253.493 168.376 249.717 169.848C246.005 171.256 241.525 171.96 236.277 171.96Z" fill="#606506"/>
<path d="M270.004 171V118.488H290.644V134.328L287.284 129.816C288.884 125.72 291.444 122.648 294.964 120.6C298.484 118.552 302.708 117.528 307.636 117.528V136.728C306.676 136.6 305.812 136.504 305.044 136.44C304.34 136.376 303.604 136.344 302.836 136.344C299.572 136.344 296.884 137.208 294.772 138.936C292.724 140.6 291.7 143.512 291.7 147.672V171H270.004Z" fill="#606506"/>
<path d="M357.83 171V121.368H338.15V103.8H400.166V121.368H380.486V171H357.83Z" fill="#606506"/>
<path d="M404.441 171V118.488H425.081V134.328L421.721 129.816C423.321 125.72 425.881 122.648 429.401 120.6C432.921 118.552 437.145 117.528 442.073 117.528V136.728C441.113 136.6 440.249 136.504 439.481 136.44C438.777 136.376 438.041 136.344 437.273 136.344C434.009 136.344 431.321 137.208 429.209 138.936C427.161 140.6 426.137 143.512 426.137 147.672V171H404.441Z" fill="#606506"/>
<path d="M477.092 171V161.688L475.556 159.192V141.528C475.556 138.968 474.756 137.016 473.156 135.672C471.62 134.328 469.092 133.656 465.572 133.656C463.204 133.656 460.804 134.04 458.372 134.808C455.94 135.512 453.86 136.504 452.132 137.784L445.22 123.48C448.292 121.56 451.972 120.088 456.26 119.064C460.548 118.04 464.74 117.528 468.836 117.528C477.86 117.528 484.836 119.544 489.764 123.576C494.756 127.608 497.252 134.008 497.252 142.776V171H477.092ZM462.212 171.96C457.924 171.96 454.34 171.224 451.46 169.752C448.58 168.28 446.404 166.328 444.932 163.896C443.46 161.4 442.724 158.648 442.724 155.64C442.724 152.248 443.588 149.368 445.316 147C447.044 144.632 449.668 142.84 453.188 141.624C456.772 140.408 461.284 139.8 466.724 139.8H477.668V150.264H470.18C467.876 150.264 466.18 150.648 465.092 151.416C464.068 152.12 463.556 153.208 463.556 154.68C463.556 155.896 464.004 156.92 464.9 157.752C465.86 158.52 467.14 158.904 468.74 158.904C470.212 158.904 471.556 158.52 472.772 157.752C474.052 156.92 474.98 155.64 475.556 153.912L478.34 160.344C477.508 164.248 475.748 167.16 473.06 169.08C470.372 171 466.756 171.96 462.212 171.96Z" fill="#606506"/>
<path d="M506.629 171V118.488H528.325V171H506.629ZM517.477 114.264C513.509 114.264 510.341 113.208 507.973 111.096C505.605 108.984 504.421 106.36 504.421 103.224C504.421 100.088 505.605 97.4641 507.973 95.3521C510.341 93.2401 513.509 92.1841 517.477 92.1841C521.445 92.1841 524.613 93.1761 526.981 95.1601C529.349 97.1441 530.533 99.7041 530.533 102.84C530.533 106.168 529.349 108.92 526.981 111.096C524.613 113.208 521.445 114.264 517.477 114.264Z" fill="#606506"/>
<path d="M537.941 171V99.7681H559.637V171H537.941Z" fill="#606506"/>
</g>
<path d="M549.001 118V170.5" stroke="black" stroke-width="21"/>
<path d="M840.024 676L829.187 408.624L712.687 321.995C699.863 311.054 675.516 281.64 680.718 251.508C685.92 221.376 700.947 218.147 707.81 220.3C720.815 220.12 741.62 232.655 758.203 266.036C778.252 306.391 817.266 298.32 840.024 279.488C870.91 247.741 872.535 183.386 840.024 169.721C737.613 126.675 802.094 227.833 721.899 211.69C695.761 206.429 695.709 182.276 699.141 169.721C713.873 137.124 745.698 93.552 791.257 75.8298C779.878 51.7056 766.873 2.81157 805.887 0.228829C854.654 -2.9996 814.015 28.1574 886.624 79.4794C879.399 64.5414 869.284 31.2217 886.624 17.4471C908.298 0.22883 907.143 17.4471 951.069 122.909C1047.67 212.247 1021.95 323.822 994.995 370.96C983.797 384.411 972.996 422.83 1019.38 468.888C1049.04 498.343 1089.22 560.303 1121 610.435V676H840.024Z" fill="#6852CE"/>
<path d="M770.001 126C745.601 130.4 748.501 110.167 753.001 99.5C768.423 86.0563 788.501 72 795.501 76C802.501 80 794.401 121.6 770.001 126Z" fill="#D9D9D9"/>
<path d="M815.664 94.1855C803.482 85.1107 813.748 77.9384 820.404 75.4866C832.875 76.7592 847.568 79.8579 848.709 84.6641C849.85 89.4704 827.847 103.26 815.664 94.1855Z" fill="#D9D9D9"/>
<path d="M811.935 101.828C823.889 98.4989 816.547 113.075 814.801 118.6C807.742 126.018 805.232 129.6 801.557 127.933C797.882 126.266 799.981 105.158 811.935 101.828Z" fill="#D9D9D9"/>
<path d="M997.262 299.073C1005.84 286.536 1013.42 296.505 1016.14 303.057C1015.37 315.569 1012.86 330.375 1008.11 331.708C1003.35 333.041 988.685 311.611 997.262 299.073Z" fill="#D9D9D9"/>
<path d="M982.5 259.5C991.538 237.226 1007.09 215.785 1013.5 225C1016.52 244.604 1024.16 272.632 1017.26 276.295C1010.35 279.959 973.462 281.774 982.5 259.5Z" fill="#D9D9D9"/>
<path d="M990.104 289.622C993.912 301.432 969.193 317.489 963.602 315.968C955.906 309.213 962.086 293.36 963.604 289.622C965.122 285.883 986.296 277.811 990.104 289.622Z" fill="#D9D9D9"/>
<path d="M1001.87 340.708C1009.88 350.181 993.135 374.437 987.386 375.157C977.698 371.84 977.379 354.828 977.36 350.793C977.341 346.758 993.85 331.236 1001.87 340.708Z" fill="#D9D9D9"/>
<path d="M986.445 319.994C989.773 324.384 985.419 333.426 983.476 333.385C979.933 331.441 978.819 324.388 978.574 322.718C978.329 321.049 983.117 315.604 986.445 319.994Z" fill="#D9D9D9"/>
<path d="M1040.28 526.859C1038.97 511.724 1051.15 514.638 1057.41 517.987C1064.74 528.157 1072.18 541.201 1069.34 545.245C1066.5 549.289 1041.58 541.994 1040.28 526.859Z" fill="#D9D9D9"/>
<path d="M1003.79 505.584C996.675 482.623 995.131 456.181 1005.93 459.253C1020.68 472.507 1044.35 489.359 1041.32 496.568C1038.3 503.776 1010.9 528.545 1003.79 505.584Z" fill="#D9D9D9"/>
<path d="M1028.75 524.078C1039.18 530.806 1030.22 558.887 1024.93 561.251C1014.7 560.898 1009.44 544.717 1008.24 540.862C1007.05 537.007 1018.32 517.35 1028.75 524.078Z" fill="#D9D9D9"/>
<path d="M1070.21 556.161C1082.41 558.414 1084.82 587.792 1080.83 591.991C1071.23 595.56 1060.21 582.597 1057.64 579.487C1055.06 576.377 1058.01 553.908 1070.21 556.161Z" fill="#D9D9D9"/>
<path d="M1045.16 549.899C1050.51 551.188 1052.87 560.943 1051.34 562.142C1047.37 562.882 1042.04 558.129 1040.79 556.992C1039.54 555.855 1039.8 548.61 1045.16 549.899Z" fill="#D9D9D9"/>
<path d="M1091.15 609.399C1091.47 619.219 1084.08 629.159 1082.7 627.311C1081.07 621.064 1083.6 609.172 1084.22 606.374C1084.83 603.576 1090.84 599.578 1091.15 609.399Z" fill="#D9D9D9"/>
<path d="M1076.96 655.26C1075.65 640.125 1087.83 643.039 1094.09 646.388C1101.41 656.558 1108.85 669.602 1106.02 673.647C1103.18 677.691 1078.26 670.395 1076.96 655.26Z" fill="#D9D9D9"/>
<path d="M1035.79 626.584C1028.68 603.623 1027.13 577.181 1037.93 580.253C1052.68 593.507 1076.35 610.359 1073.32 617.568C1070.3 624.776 1042.9 649.545 1035.79 626.584Z" fill="#D9D9D9"/>
<path d="M1040.24 661.862C1039.05 658.008 1050.32 638.35 1060.75 645.078C1068.19 649.879 1065.76 665.557 1061.84 675L1046.24 675C1042.86 670.053 1040.91 664.022 1040.24 661.862Z" fill="#D9D9D9"/>
<path d="M1101.07 630.608C1089.69 625.654 1093.99 596.494 1098.83 593.306C1108.99 592 1116.79 607.119 1118.59 610.73C1120.39 614.341 1112.45 635.562 1101.07 630.608Z" fill="#D9D9D9"/>
<path d="M1034.44 641.765C1037.38 647.165 1031.72 656.242 1029.69 655.843C1026.23 653.075 1025.93 645.171 1025.88 643.303C1025.83 641.436 1031.5 636.365 1034.44 641.765Z" fill="#D9D9D9"/>
<path d="M1115.17 643.576C1118.11 648.976 1112.45 658.054 1110.43 657.654C1106.96 654.886 1106.66 646.982 1106.61 645.115C1106.56 643.247 1112.23 638.176 1115.17 643.576Z" fill="#D9D9D9"/>
<path d="M995.119 205.01C1000.63 205.076 1005.09 214.064 1003.87 215.573C1000.16 217.177 993.908 213.727 992.439 212.896C990.971 212.064 989.611 204.943 995.119 205.01Z" fill="#D9D9D9"/>
<path d="M987.548 227.658C988.115 233.138 982.639 233.544 980.998 232.5C978.979 229.001 978.749 227.457 979.406 225.903C980.063 224.348 986.981 222.178 987.548 227.658Z" fill="#D9D9D9"/>
<path d="M607.344 118L701.511 165.427C701.511 165.427 690.211 198.302 724.649 210.159C759.087 222.016 769.849 188.062 769.849 188.062L915.135 232.794C927.619 257.801 896.302 282.018 879.083 291L572.906 165.427L546.001 118H607.344Z" fill="#535353"/>
<path d="M874.014 395.5C741.614 366.3 704 266.167 701.5 220C697.485 221 667.814 221.8 679.014 279C690.214 336.2 785.014 388.833 828.514 410L838.514 675.5H882.514C790.014 413 1039.51 432 874.014 395.5Z" fill="#473B7E"/>
<path d="M816.014 163C770.014 157.5 786.5 173.5 761 202.5C755.5 161.5 792.014 138 838.514 153.5C875.715 165.9 880.014 204 877.514 221.5L861.014 216.5C861.347 200.5 852.814 167.4 816.014 163Z" fill="#473B7E"/>
<path d="M790.514 76.5C770.114 48.5 778.167 21.8333 784 13C788.364 48.584 818.428 67.9402 833.025 74.8516C835.029 75.2719 836.879 75.8144 838.514 76.5C843.607 78.6359 840.169 78.2343 833.025 74.8516C819.826 72.0848 799.919 74.619 790.514 76.5Z" fill="#473B7E"/>
<path d="M886.5 80.5C861.3 44.9 873.5 23.3333 886 19C866.386 33.9987 892.631 75.3243 901.924 88.3708C902.6 89.1554 903.295 90.028 904.014 91C905.976 93.6546 904.713 92.2862 901.924 88.3708C896.203 81.7288 891.866 81.3943 886.5 80.5Z" fill="#473B7E"/>
<defs>
<filter id="filter0_d_1020_507" x="0.0195312" y="92.1841" width="567.618" height="87.7759" filterUnits="userSpaceOnUse" color-interpolation-filters="sRGB">
<feFlood flood-opacity="0" result="BackgroundImageFix"/>
<feColorMatrix in="SourceAlpha" type="matrix" values="0 0 0 0 0 0 0 0 0 0 0 0 0 0 0 0 0 0 127 0" result="hardAlpha"/>
<feOffset dx="4" dy="4"/>
<feGaussianBlur stdDeviation="2"/>
<feComposite in2="hardAlpha" operator="out"/>
<feColorMatrix type="matrix" values="0 0 0 0 0 0 0 0 0 0 0 0 0 0 0 0 0 0 0.25 0"/>
<feBlend mode="normal" in2="BackgroundImageFix" result="effect1_dropShadow_1020_507"/>
<feBlend mode="normal" in="SourceGraphic" in2="effect1_dropShadow_1020_507" result="shape"/>
</filter>
</defs>
</svg>
