<svg width="855" height="690" viewBox="0 0 855 690" fill="none" xmlns="http://www.w3.org/2000/svg">
<path d="M42.0003 251.5C0.0541229 341.355 7.00027 503 7.00027 503L1 670L854.5 689.5V386.5C854.5 386.5 836.545 289.426 807.5 234.5C768.025 159.851 731.668 121.981 661.5 75C588.986 26.4476 521.001 5.5194e-05 451 0C381 -5.51938e-05 317.5 15.8946 261.5 38C205.501 60.1054 92.5831 143.144 42.0003 251.5Z" fill="#F47E34"/>
<path d="M42.0004 251C0.0542412 340.855 7.00039 502.5 7.00039 502.5L0 689.5H854.5V492C854.5 492 587.5 622 357.5 550.5C127.5 479 85.5001 418.5 50.5452 370.5C15.5904 322.5 50.5452 234 50.5452 234C47.5339 239.592 44.6797 245.261 42.0004 251Z" fill="#E9651B"/>
<path d="M346 84C389.5 130 477.5 139 536 80" stroke="#423B38" stroke-width="6" stroke-linecap="round"/>
<path d="M388 66C391.5 94.5 434 97 434 66M457 66C457 86.5 490 94.5 499 66" stroke="#423B38" stroke-width="6" stroke-linecap="round"/>
</svg>
