<svg width="1194" height="834" viewBox="0 0 1194 834" fill="none" xmlns="http://www.w3.org/2000/svg">
<g opacity="0.5">
<path d="M120.161 751.74L129.854 731.344L150.451 740.633L137.527 761.231L120.161 751.74Z" fill="#003F58"/>
<path d="M36.9635 755.576L26.4629 740.633L40.8003 728.113L52.1086 747.297L36.9635 755.576Z" fill="#003F58"/>
<path d="M40.3957 810.705L34.5396 825.042H2.23L-14.1428 813.936H-18L-6.85708 858.967H187.808C190.635 845.034 195.886 816.52 194.27 813.936C192.655 811.351 186.462 818.378 183.568 822.215H152.672L148.431 810.705C153.345 807.339 166.04 798.669 177.51 790.915C188.98 783.161 186.327 771.529 183.568 766.683C180.673 761.904 173.188 748.913 166.403 735.181C159.618 721.449 151.595 718.69 148.431 719.026C142.71 719.632 130.984 722.661 129.853 729.931C128.439 739.018 145.806 741.239 149.643 740.028C152.712 739.058 150.114 746.086 148.431 749.72L152.672 775.164L135.911 784.655L110.871 735.181C109.256 730.402 103.399 720.843 92.8988 720.843C82.3982 720.843 75.7344 730.402 73.715 735.181L49.2809 786.877L28.4816 775.164L34.5396 749.72C31.8471 748.105 26.4218 744.147 26.2603 741.239C26.0583 737.604 34.5396 736.797 38.1744 741.239C41.8093 745.682 51.5022 739.018 51.3002 727.508C51.1387 718.299 40.0592 719.228 34.5396 720.843C31.376 723.738 24.2005 729.123 20.808 727.508C17.4155 725.892 17.5098 722.392 17.9809 720.843C17.1732 719.497 14.8711 717.612 12.1248 720.843C9.3785 724.074 13.2691 731.748 15.5577 735.181C14.1442 738.075 9.49966 747.66 2.23 762.846C-5.03966 778.031 0.412582 786.54 4.04741 788.896L40.3957 810.705Z" fill="#F05C40"/>
<path d="M85.2266 754.365V760.827M96.9388 754.365V760.827M89.0633 771.731C92.3616 772.135 99.8063 771.569 103.199 766.077" stroke="black" stroke-width="3" stroke-linecap="round"/>
<path d="M46.6538 863.006H24.0371L43.8267 829.686L55.539 849.072L46.6538 863.006Z" fill="#073E55"/>
<path d="M66.646 829.686H44.0293L63.8189 863.006L75.5312 843.014L66.646 829.686Z" fill="#D4B6EC"/>
<path d="M86.4351 863.006H63.8184L83.608 829.686L95.3202 849.072L86.4351 863.006Z" fill="#073E55"/>
<path d="M106.427 829.686H83.8105L103.6 863.006L115.312 843.014L106.427 829.686Z" fill="#D4B6EC"/>
<path d="M126.419 862.198H103.803L123.592 828.879L135.305 848.264L126.419 862.198Z" fill="#073E55"/>
<path d="M146.41 828.879H123.793L143.583 862.198H167.007L146.41 828.879Z" fill="#D4B6EC"/>
<path d="M66.2417 829.484H43.625L63.4146 796.165L75.1269 815.551L66.2417 829.484Z" fill="#073E55"/>
<path d="M86.2339 796.165H63.6172L83.4068 829.484L95.1191 809.493L86.2339 796.165Z" fill="#D4B6EC"/>
<path d="M106.224 828.677H83.6074L103.397 795.357L115.109 814.743L106.224 828.677Z" fill="#073E55"/>
<path d="M126.216 795.357H103.6L123.389 828.677H146.814L126.216 795.357Z" fill="#D4B6EC"/>
<path d="M261.715 751.862L252.291 734.313C251.185 732.253 251.654 729.701 253.421 728.169L270.478 713.386C271.953 712.108 274.038 711.805 275.816 712.61L292.816 720.308C295.999 721.75 296.76 725.928 294.289 728.399L269.656 753.032C267.286 755.402 263.301 754.815 261.715 751.862Z" fill="#063F58"/>
<path d="M213.451 758.263C189.919 715.518 169.141 659.739 178.839 649.581C188.797 639.148 230.241 647.156 289.517 680.004C294.762 682.91 296.158 689.813 292.482 694.549C270.366 723.043 255.891 737.098 228.372 760.833C223.671 764.888 216.445 763.701 213.451 758.263Z" fill="#E3D6BD"/>
<circle cx="230.398" cy="695.289" r="27" stroke="#063F58" stroke-width="2"/>
<path d="M181.899 680.289C195.38 672.071 202.225 664.702 213.899 649.289M200.674 733.484C214.112 737.564 222.334 741.668 238.174 751.484M264.898 668.289C270.177 683.074 274.11 690.639 284.898 701.289" stroke="#063F58" stroke-width="2" stroke-linecap="round"/>
<circle cx="230.398" cy="695.289" r="23" fill="#FDC93A" stroke="#063F58" stroke-width="2"/>
<path d="M219.398 688.789L220.898 694.789M229.398 686.289L229.898 688.789L230.398 691.289M221.898 701.289C228.398 705.289 236.398 699.789 236.398 692.789M245.398 711.289C245.398 711.289 239.898 701.789 240.898 699.289C241.898 696.789 244.398 698.289 244.398 698.289L246.398 703.289C246.398 703.289 242.898 693.789 243.398 691.289C243.898 688.789 246.898 687.789 246.898 687.789L249.398 697.789C249.398 697.789 247.273 689.289 246.898 686.289C246.523 683.289 249.898 683.289 249.898 683.289" stroke="#063F58" stroke-width="2" stroke-linecap="round" stroke-linejoin="bevel"/>
<path d="M52.7095 590.623C47.4007 596.255 49.5196 606.221 56.5234 608.561C60.1002 610.117 63.5046 611.577 66.7807 612.955C66.7807 612.955 64.9457 628.878 57.7852 633.33C52.4044 636.676 43.4632 633.888 38.5535 631.899C36.4557 631.049 33.9848 631.481 32.5175 633.204C25.9859 640.875 23.989 645.699 20.6512 652.798C20.2501 653.65 21.1519 654.577 22.0215 654.214C24.953 652.99 29.7658 651.17 33.1659 650.844C38.3738 650.343 47.7719 660.942 66.7806 654.847C81.2491 650.207 89.9795 622.086 89.9795 622.086C95.3822 624.033 100.727 625.815 106.297 627.519C106.297 627.519 119.033 642.456 120.797 655.347C122.43 667.278 115.315 684.488 112.197 691.304C111.576 692.661 112.566 694.242 114.06 694.242H139.885C141.517 694.242 142.462 692.394 141.507 691.072L137.297 685.242C137.297 685.242 145.966 667.093 143.797 654.847C142.301 646.399 134.797 633.33 134.797 633.33C135.942 633.604 138.114 633.053 139.297 633.33C152.806 632.504 150.797 627.519 150.797 618.742C150.797 618.742 171.607 626.733 181.797 617.242C189.644 609.933 187.933 595.521 186.843 589.696C186.602 588.407 187.581 587.165 188.893 587.165H192.158C192.864 587.165 193.518 586.792 193.878 586.185L194.716 584.772C195.076 584.164 195.73 583.792 196.436 583.792H200.554C201.315 583.792 202.014 583.361 202.34 582.674C203.319 580.605 203.776 579.255 203.528 577.989C203.432 577.495 203.039 577.126 202.58 576.92C192.674 572.469 186.424 569.854 173.642 568.982C171.38 568.828 169.326 570.287 168.686 572.462C166.478 579.972 165.373 585.336 165.675 593.403C165.721 594.631 164.69 595.642 163.467 595.531L150.797 594.382C149.968 569.953 146.108 555.098 137.297 526.742C135.602 518.77 121.131 518.03 115.822 523.663C95.8715 540.748 83.4468 553.236 70.3089 568.78C70.3089 568.78 55.3026 559.42 45.0011 562.775C32.561 566.827 30.7977 585.967 27.0101 588.795C23.2225 591.624 20.5127 587.863 17.0677 589.796C13.8261 591.615 12.3338 595.301 13.2812 598.303C14.2287 601.305 28.9039 606.309 34.1118 605.809C39.3197 605.308 49.2621 583.792 49.2621 583.792L55.4169 587.165C54.5285 588.296 53.6266 589.448 52.7095 590.623Z" fill="#7BBB96"/>
<path d="M108 559C111.639 562.982 113.758 562.834 117.5 560.5" stroke="#063F58" stroke-width="2" stroke-linecap="round" stroke-linejoin="bevel"/>
<path d="M124.5 564C127.181 567.797 128.742 567.656 131.5 565.43" stroke="#063F58" stroke-width="2" stroke-linecap="round" stroke-linejoin="bevel"/>
<path d="M116.5 573C119.181 576.797 120.742 576.656 123.5 574.43" stroke="#063F58" stroke-width="2" stroke-linecap="round" stroke-linejoin="bevel"/>
<path d="M180 586.523C183.5 587 184 587 187 587" stroke="#063F58" stroke-width="2" stroke-linecap="round" stroke-linejoin="bevel"/>
<path d="M195 578C198.5 578.477 199 578.477 202 578.477" stroke="#063F58" stroke-width="2" stroke-linecap="round" stroke-linejoin="bevel"/>
<path d="M14.5 593H22M24.5 589L22 595.5M29 589V593" stroke="#063F58" stroke-width="2" stroke-linecap="round" stroke-linejoin="bevel"/>
<path d="M187 583C189.322 582.072 190.946 582.221 194 583.477" stroke="#063F58" stroke-width="2" stroke-linecap="round" stroke-linejoin="bevel"/>
<path d="M357.161 521.74L366.854 501.344L387.451 510.633L374.527 531.231L357.161 521.74Z" fill="#003F58"/>
<path d="M273.964 525.576L263.463 510.633L277.8 498.113L289.109 517.297L273.964 525.576Z" fill="#003F58"/>
<path d="M277.396 580.705L271.54 595.042H239.23L222.857 583.936H219L230.143 628.967H424.808C427.635 615.034 432.886 586.52 431.27 583.936C429.655 581.351 423.462 588.378 420.568 592.215H389.672L385.431 580.705C390.345 577.339 403.04 568.669 414.51 560.915C425.98 553.161 423.327 541.529 420.568 536.683C417.673 531.904 410.188 518.913 403.403 505.181C396.618 491.449 388.595 488.69 385.431 489.026C379.71 489.632 367.984 492.661 366.853 499.931C365.439 509.018 382.806 511.239 386.643 510.028C389.712 509.058 387.114 516.086 385.431 519.72L389.672 545.164L372.911 554.655L347.871 505.181C346.256 500.402 340.399 490.843 329.899 490.843C319.398 490.843 312.734 500.402 310.715 505.181L286.281 556.877L265.482 545.164L271.54 519.72C268.847 518.105 263.422 514.147 263.26 511.239C263.058 507.604 271.54 506.797 275.174 511.239C278.809 515.682 288.502 509.018 288.3 497.508C288.139 488.299 277.059 489.228 271.54 490.843C268.376 493.738 261.201 499.123 257.808 497.508C254.416 495.892 254.51 492.392 254.981 490.843C254.173 489.497 251.871 487.612 249.125 490.843C246.379 494.074 250.269 501.748 252.558 505.181C251.144 508.075 246.5 517.66 239.23 532.846C231.96 548.031 237.413 556.54 241.047 558.896L277.396 580.705Z" fill="#F05C40"/>
<path d="M322.227 524.365V530.827M333.939 524.365V530.827M326.063 541.731C329.362 542.135 336.806 541.57 340.199 536.077" stroke="black" stroke-width="3" stroke-linecap="round"/>
<path d="M283.654 633.006H261.037L280.827 599.687L292.539 619.072L283.654 633.006Z" fill="#073E55"/>
<path d="M303.646 599.686H281.029L300.819 633.006L312.531 613.014L303.646 599.686Z" fill="#D4B6EC"/>
<path d="M323.435 633.006H300.818L320.608 599.687L332.32 619.072L323.435 633.006Z" fill="#073E55"/>
<path d="M343.427 599.686H320.811L340.6 633.006L352.312 613.014L343.427 599.686Z" fill="#D4B6EC"/>
<path d="M363.419 632.198H340.803L360.592 598.879L372.305 618.264L363.419 632.198Z" fill="#073E55"/>
<path d="M383.41 598.879H360.793L380.583 632.198H404.007L383.41 598.879Z" fill="#D4B6EC"/>
<path d="M303.242 599.485H280.625L300.415 566.165L312.127 585.551L303.242 599.485Z" fill="#073E55"/>
<path d="M323.234 566.165H300.617L320.407 599.485L332.119 579.493L323.234 566.165Z" fill="#D4B6EC"/>
<path d="M343.224 598.677H320.607L340.397 565.357L352.109 584.743L343.224 598.677Z" fill="#073E55"/>
<path d="M363.216 565.357H340.6L360.389 598.677H383.814L363.216 565.357Z" fill="#D4B6EC"/>
<path d="M498.715 521.862L489.291 504.313C488.185 502.253 488.654 499.701 490.421 498.169L507.478 483.386C508.953 482.108 511.038 481.805 512.816 482.61L529.816 490.308C532.999 491.75 533.76 495.928 531.289 498.399L506.656 523.032C504.286 525.402 500.301 524.815 498.715 521.862Z" fill="#063F58"/>
<path d="M450.451 528.263C426.919 485.518 406.141 429.739 415.839 419.581C425.797 409.148 467.241 417.156 526.517 450.004C531.762 452.91 533.158 459.813 529.482 464.549C507.366 493.043 492.891 507.098 465.372 530.833C460.671 534.888 453.445 533.701 450.451 528.263Z" fill="#E3D6BD"/>
<circle cx="467.398" cy="465.289" r="27" stroke="#063F58" stroke-width="2"/>
<path d="M418.899 450.289C432.38 442.071 439.225 434.702 450.899 419.289M437.674 503.484C451.112 507.564 459.334 511.668 475.174 521.484M501.898 438.289C507.177 453.074 511.11 460.639 521.898 471.289" stroke="#063F58" stroke-width="2" stroke-linecap="round"/>
<circle cx="467.398" cy="465.289" r="23" fill="#FDC93A" stroke="#063F58" stroke-width="2"/>
<path d="M456.398 458.789L457.898 464.789M466.398 456.289L466.898 458.789L467.398 461.289M458.898 471.289C465.398 475.289 473.398 469.789 473.398 462.789M482.398 481.289C482.398 481.289 476.898 471.789 477.898 469.289C478.898 466.789 481.398 468.289 481.398 468.289L483.398 473.289C483.398 473.289 479.898 463.789 480.398 461.289C480.898 458.789 483.898 457.789 483.898 457.789L486.398 467.789C486.398 467.789 484.273 459.289 483.898 456.289C483.523 453.289 486.898 453.289 486.898 453.289" stroke="#063F58" stroke-width="2" stroke-linecap="round" stroke-linejoin="bevel"/>
<path d="M289.71 360.623C284.401 366.255 286.52 376.221 293.523 378.561C297.1 380.117 300.505 381.577 303.781 382.955C303.781 382.955 301.946 398.878 294.785 403.33C289.404 406.676 280.463 403.888 275.553 401.899C273.456 401.049 270.985 401.481 269.517 403.204C262.986 410.875 260.989 415.699 257.651 422.798C257.25 423.65 258.152 424.577 259.022 424.214C261.953 422.99 266.766 421.17 270.166 420.844C275.374 420.343 284.772 430.942 303.781 424.847C318.249 420.207 326.979 392.086 326.979 392.086C332.382 394.033 337.727 395.815 343.297 397.519C343.297 397.519 356.033 412.456 357.797 425.347C359.43 437.278 352.315 454.488 349.197 461.304C348.576 462.661 349.566 464.242 351.06 464.242H376.885C378.517 464.242 379.462 462.394 378.507 461.072L374.297 455.242C374.297 455.242 382.966 437.093 380.797 424.847C379.301 416.399 371.797 403.33 371.797 403.33C372.942 403.604 375.114 403.053 376.297 403.33C389.806 402.504 387.797 397.519 387.797 388.742C387.797 388.742 408.607 396.733 418.797 387.242C426.644 379.933 424.933 365.521 423.843 359.696C423.602 358.407 424.581 357.165 425.893 357.165H429.158C429.864 357.165 430.518 356.792 430.878 356.185L431.716 354.772C432.076 354.164 432.73 353.792 433.436 353.792H437.554C438.315 353.792 439.014 353.361 439.34 352.674C440.319 350.605 440.776 349.255 440.528 347.989C440.432 347.495 440.039 347.126 439.58 346.92C429.674 342.469 423.424 339.854 410.642 338.982C408.38 338.828 406.326 340.287 405.686 342.462C403.478 349.972 402.373 355.336 402.675 363.403C402.721 364.631 401.69 365.642 400.467 365.531L387.797 364.382C386.968 339.953 383.108 325.098 374.297 296.742C372.602 288.77 358.131 288.03 352.822 293.663C332.871 310.748 320.447 323.236 307.309 338.78C307.309 338.78 292.303 329.42 282.001 332.775C269.561 336.827 267.798 355.967 264.01 358.795C260.223 361.624 257.513 357.863 254.068 359.796C250.826 361.615 249.334 365.301 250.281 368.303C251.229 371.305 265.904 376.309 271.112 375.809C276.32 375.308 286.262 353.792 286.262 353.792L292.417 357.165C291.528 358.296 290.627 359.448 289.71 360.623Z" fill="#7BBB96"/>
<path d="M345 329C348.639 332.982 350.758 332.834 354.5 330.5" stroke="#063F58" stroke-width="2" stroke-linecap="round" stroke-linejoin="bevel"/>
<path d="M361.5 334C364.181 337.797 365.742 337.656 368.5 335.43" stroke="#063F58" stroke-width="2" stroke-linecap="round" stroke-linejoin="bevel"/>
<path d="M353.5 343C356.181 346.797 357.742 346.656 360.5 344.43" stroke="#063F58" stroke-width="2" stroke-linecap="round" stroke-linejoin="bevel"/>
<path d="M417 356.523C420.5 357 421 357 424 357" stroke="#063F58" stroke-width="2" stroke-linecap="round" stroke-linejoin="bevel"/>
<path d="M432 348C435.5 348.477 436 348.477 439 348.477" stroke="#063F58" stroke-width="2" stroke-linecap="round" stroke-linejoin="bevel"/>
<path d="M251.5 363H259M261.5 359L259 365.5M266 359V363" stroke="#063F58" stroke-width="2" stroke-linecap="round" stroke-linejoin="bevel"/>
<path d="M424 353C426.322 352.072 427.946 352.221 431 353.477" stroke="#063F58" stroke-width="2" stroke-linecap="round" stroke-linejoin="bevel"/>
<path d="M646.161 567.74L655.854 547.344L676.451 556.633L663.527 577.231L646.161 567.74Z" fill="#003F58"/>
<path d="M562.964 571.576L552.463 556.633L566.8 544.113L578.109 563.297L562.964 571.576Z" fill="#003F58"/>
<path d="M566.396 626.705L560.54 641.042H528.23L511.857 629.936H508L519.143 674.967H713.808C716.635 661.034 721.886 632.52 720.27 629.936C718.655 627.351 712.462 634.378 709.568 638.215H678.672L674.431 626.705C679.345 623.339 692.04 614.669 703.51 606.915C714.98 599.161 712.327 587.529 709.568 582.683C706.673 577.904 699.188 564.913 692.403 551.181C685.618 537.449 677.595 534.69 674.431 535.026C668.71 535.632 656.984 538.661 655.853 545.931C654.439 555.018 671.806 557.239 675.643 556.028C678.712 555.058 676.114 562.086 674.431 565.72L678.672 591.164L661.911 600.655L636.871 551.181C635.256 546.402 629.399 536.843 618.899 536.843C608.398 536.843 601.734 546.402 599.715 551.181L575.281 602.877L554.482 591.164L560.54 565.72C557.847 564.105 552.422 560.147 552.26 557.239C552.058 553.604 560.54 552.797 564.174 557.239C567.809 561.682 577.502 555.018 577.3 543.508C577.139 534.299 566.059 535.228 560.54 536.843C557.376 539.738 550.201 545.123 546.808 543.508C543.416 541.892 543.51 538.392 543.981 536.843C543.173 535.497 540.871 533.612 538.125 536.843C535.379 540.074 539.269 547.748 541.558 551.181C540.144 554.075 535.5 563.66 528.23 578.846C520.96 594.031 526.413 602.54 530.047 604.896L566.396 626.705Z" fill="#F05C40"/>
<path d="M611.227 570.365V576.827M622.939 570.365V576.827M615.063 587.731C618.362 588.135 625.806 587.57 629.199 582.077" stroke="black" stroke-width="3" stroke-linecap="round"/>
<path d="M572.654 679.006H550.037L569.827 645.686L581.539 665.072L572.654 679.006Z" fill="#073E55"/>
<path d="M592.646 645.686H570.029L589.819 679.006L601.531 659.014L592.646 645.686Z" fill="#D4B6EC"/>
<path d="M612.435 679.006H589.818L609.608 645.686L621.32 665.072L612.435 679.006Z" fill="#073E55"/>
<path d="M632.427 645.686H609.811L629.6 679.006L641.312 659.014L632.427 645.686Z" fill="#D4B6EC"/>
<path d="M652.419 678.198H629.803L649.592 644.879L661.305 664.264L652.419 678.198Z" fill="#073E55"/>
<path d="M672.41 644.879H649.793L669.583 678.198H693.007L672.41 644.879Z" fill="#D4B6EC"/>
<path d="M592.242 645.484H569.625L589.415 612.165L601.127 631.551L592.242 645.484Z" fill="#073E55"/>
<path d="M612.234 612.165H589.617L609.407 645.484L621.119 625.493L612.234 612.165Z" fill="#D4B6EC"/>
<path d="M632.224 644.677H609.607L629.397 611.357L641.109 630.743L632.224 644.677Z" fill="#073E55"/>
<path d="M652.216 611.357H629.6L649.389 644.677H672.814L652.216 611.357Z" fill="#D4B6EC"/>
<path d="M787.715 567.862L778.291 550.313C777.185 548.253 777.654 545.701 779.421 544.169L796.478 529.386C797.953 528.108 800.038 527.805 801.816 528.61L818.816 536.308C821.999 537.75 822.76 541.928 820.289 544.399L795.656 569.032C793.286 571.402 789.301 570.815 787.715 567.862Z" fill="#063F58"/>
<path d="M739.451 574.263C715.919 531.518 695.141 475.739 704.839 465.581C714.797 455.148 756.241 463.156 815.517 496.004C820.762 498.91 822.158 505.813 818.482 510.549C796.366 539.043 781.891 553.098 754.372 576.833C749.671 580.888 742.445 579.701 739.451 574.263Z" fill="#E3D6BD"/>
<circle cx="756.398" cy="511.289" r="27" stroke="#063F58" stroke-width="2"/>
<path d="M707.899 496.289C721.38 488.071 728.225 480.702 739.899 465.289M726.674 549.484C740.112 553.564 748.334 557.668 764.174 567.484M790.898 484.289C796.177 499.074 800.11 506.639 810.898 517.289" stroke="#063F58" stroke-width="2" stroke-linecap="round"/>
<circle cx="756.398" cy="511.289" r="23" fill="#FDC93A" stroke="#063F58" stroke-width="2"/>
<path d="M745.398 504.789L746.898 510.789M755.398 502.289L755.898 504.789L756.398 507.289M747.898 517.289C754.398 521.289 762.398 515.789 762.398 508.789M771.398 527.289C771.398 527.289 765.898 517.789 766.898 515.289C767.898 512.789 770.398 514.289 770.398 514.289L772.398 519.289C772.398 519.289 768.898 509.789 769.398 507.289C769.898 504.789 772.898 503.789 772.898 503.789L775.398 513.789C775.398 513.789 773.273 505.289 772.898 502.289C772.523 499.289 775.898 499.289 775.898 499.289" stroke="#063F58" stroke-width="2" stroke-linecap="round" stroke-linejoin="bevel"/>
<path d="M578.71 406.623C573.401 412.255 575.52 422.221 582.523 424.561C586.1 426.117 589.505 427.577 592.781 428.955C592.781 428.955 590.946 444.878 583.785 449.33C578.404 452.676 569.463 449.888 564.553 447.899C562.456 447.049 559.985 447.481 558.517 449.204C551.986 456.875 549.989 461.699 546.651 468.798C546.25 469.65 547.152 470.577 548.022 470.214C550.953 468.99 555.766 467.17 559.166 466.844C564.374 466.343 573.772 476.942 592.781 470.847C607.249 466.207 615.979 438.086 615.979 438.086C621.382 440.033 626.727 441.815 632.297 443.519C632.297 443.519 645.033 458.456 646.797 471.347C648.43 483.278 641.315 500.488 638.197 507.304C637.576 508.661 638.566 510.242 640.06 510.242H665.885C667.517 510.242 668.462 508.394 667.507 507.072L663.297 501.242C663.297 501.242 671.966 483.093 669.797 470.847C668.301 462.399 660.797 449.33 660.797 449.33C661.942 449.604 664.114 449.053 665.297 449.33C678.806 448.504 676.797 443.519 676.797 434.742C676.797 434.742 697.607 442.733 707.797 433.242C715.644 425.933 713.933 411.521 712.843 405.696C712.602 404.407 713.581 403.165 714.893 403.165H718.158C718.864 403.165 719.518 402.792 719.878 402.185L720.716 400.772C721.076 400.164 721.73 399.792 722.436 399.792H726.554C727.315 399.792 728.014 399.361 728.34 398.674C729.319 396.605 729.776 395.255 729.528 393.989C729.432 393.495 729.039 393.126 728.58 392.92C718.674 388.469 712.424 385.854 699.642 384.982C697.38 384.828 695.326 386.287 694.686 388.462C692.478 395.972 691.373 401.336 691.675 409.403C691.721 410.631 690.69 411.642 689.467 411.531L676.797 410.382C675.968 385.953 672.108 371.098 663.297 342.742C661.602 334.77 647.131 334.03 641.822 339.663C621.871 356.748 609.447 369.236 596.309 384.78C596.309 384.78 581.303 375.42 571.001 378.775C558.561 382.827 556.798 401.967 553.01 404.795C549.223 407.624 546.513 403.863 543.068 405.796C539.826 407.615 538.334 411.301 539.281 414.303C540.229 417.305 554.904 422.309 560.112 421.809C565.32 421.308 575.262 399.792 575.262 399.792L581.417 403.165C580.528 404.296 579.627 405.448 578.71 406.623Z" fill="#7BBB96"/>
<path d="M634 375C637.639 378.982 639.758 378.834 643.5 376.5" stroke="#063F58" stroke-width="2" stroke-linecap="round" stroke-linejoin="bevel"/>
<path d="M650.5 380C653.181 383.797 654.742 383.656 657.5 381.43" stroke="#063F58" stroke-width="2" stroke-linecap="round" stroke-linejoin="bevel"/>
<path d="M642.5 389C645.181 392.797 646.742 392.656 649.5 390.43" stroke="#063F58" stroke-width="2" stroke-linecap="round" stroke-linejoin="bevel"/>
<path d="M706 402.523C709.5 403 710 403 713 403" stroke="#063F58" stroke-width="2" stroke-linecap="round" stroke-linejoin="bevel"/>
<path d="M721 394C724.5 394.477 725 394.477 728 394.477" stroke="#063F58" stroke-width="2" stroke-linecap="round" stroke-linejoin="bevel"/>
<path d="M540.5 409H548M550.5 405L548 411.5M555 405V409" stroke="#063F58" stroke-width="2" stroke-linecap="round" stroke-linejoin="bevel"/>
<path d="M713 399C715.322 398.072 716.946 398.221 720 399.477" stroke="#063F58" stroke-width="2" stroke-linecap="round" stroke-linejoin="bevel"/>
<path d="M963.161 504.74L972.854 484.344L993.451 493.633L980.527 514.231L963.161 504.74Z" fill="#003F58"/>
<path d="M879.964 508.576L869.463 493.633L883.8 481.113L895.109 500.297L879.964 508.576Z" fill="#003F58"/>
<path d="M883.396 563.705L877.54 578.042H845.23L828.857 566.936H825L836.143 611.967H1030.81C1033.64 598.034 1038.89 569.52 1037.27 566.936C1035.65 564.351 1029.46 571.378 1026.57 575.215H995.672L991.431 563.705C996.345 560.339 1009.04 551.669 1020.51 543.915C1031.98 536.161 1029.33 524.529 1026.57 519.683C1023.67 514.904 1016.19 501.913 1009.4 488.181C1002.62 474.449 994.595 471.69 991.431 472.026C985.71 472.632 973.984 475.661 972.853 482.931C971.439 492.018 988.806 494.239 992.643 493.028C995.712 492.058 993.114 499.086 991.431 502.72L995.672 528.164L978.911 537.655L953.871 488.181C952.256 483.402 946.399 473.843 935.899 473.843C925.398 473.843 918.734 483.402 916.715 488.181L892.281 539.877L871.482 528.164L877.54 502.72C874.847 501.105 869.422 497.147 869.26 494.239C869.058 490.604 877.54 489.797 881.174 494.239C884.809 498.682 894.502 492.018 894.3 480.508C894.139 471.299 883.059 472.228 877.54 473.843C874.376 476.738 867.201 482.123 863.808 480.508C860.416 478.892 860.51 475.392 860.981 473.843C860.173 472.497 857.871 470.612 855.125 473.843C852.379 477.074 856.269 484.748 858.558 488.181C857.144 491.075 852.5 500.66 845.23 515.846C837.96 531.031 843.413 539.54 847.047 541.896L883.396 563.705Z" fill="#F05C40"/>
<path d="M928.227 507.365V513.827M939.939 507.365V513.827M932.063 524.731C935.362 525.135 942.806 524.57 946.199 519.077" stroke="black" stroke-width="3" stroke-linecap="round"/>
<path d="M889.654 616.006H867.037L886.827 582.687L898.539 602.072L889.654 616.006Z" fill="#073E55"/>
<path d="M909.646 582.686H887.029L906.819 616.006L918.531 596.014L909.646 582.686Z" fill="#D4B6EC"/>
<path d="M929.435 616.006H906.818L926.608 582.687L938.32 602.072L929.435 616.006Z" fill="#073E55"/>
<path d="M949.427 582.686H926.811L946.6 616.006L958.312 596.014L949.427 582.686Z" fill="#D4B6EC"/>
<path d="M969.419 615.198H946.803L966.592 581.879L978.305 601.264L969.419 615.198Z" fill="#073E55"/>
<path d="M989.41 581.879H966.793L986.583 615.198H1010.01L989.41 581.879Z" fill="#D4B6EC"/>
<path d="M909.242 582.485H886.625L906.415 549.165L918.127 568.551L909.242 582.485Z" fill="#073E55"/>
<path d="M929.234 549.165H906.617L926.407 582.485L938.119 562.493L929.234 549.165Z" fill="#D4B6EC"/>
<path d="M949.224 581.677H926.607L946.397 548.357L958.109 567.743L949.224 581.677Z" fill="#073E55"/>
<path d="M969.216 548.357H946.6L966.389 581.677H989.814L969.216 548.357Z" fill="#D4B6EC"/>
<path d="M1104.72 504.862L1095.29 487.313C1094.18 485.253 1094.65 482.701 1096.42 481.169L1113.48 466.386C1114.95 465.108 1117.04 464.805 1118.82 465.61L1135.82 473.308C1139 474.75 1139.76 478.928 1137.29 481.399L1112.66 506.032C1110.29 508.402 1106.3 507.815 1104.72 504.862Z" fill="#063F58"/>
<path d="M1056.45 511.263C1032.92 468.518 1012.14 412.739 1021.84 402.581C1031.8 392.148 1073.24 400.156 1132.52 433.004C1137.76 435.91 1139.16 442.813 1135.48 447.549C1113.37 476.043 1098.89 490.098 1071.37 513.833C1066.67 517.888 1059.45 516.701 1056.45 511.263Z" fill="#E3D6BD"/>
<circle cx="1073.4" cy="448.289" r="27" stroke="#063F58" stroke-width="2"/>
<path d="M1024.9 433.289C1038.38 425.071 1045.22 417.702 1056.9 402.289M1043.67 486.484C1057.11 490.564 1065.33 494.668 1081.17 504.484M1107.9 421.289C1113.18 436.074 1117.11 443.639 1127.9 454.289" stroke="#063F58" stroke-width="2" stroke-linecap="round"/>
<circle cx="1073.4" cy="448.289" r="23" fill="#FDC93A" stroke="#063F58" stroke-width="2"/>
<path d="M1062.4 441.789L1063.9 447.789M1072.4 439.289L1072.9 441.789L1073.4 444.289M1064.9 454.289C1071.4 458.289 1079.4 452.789 1079.4 445.789M1088.4 464.289C1088.4 464.289 1082.9 454.789 1083.9 452.289C1084.9 449.789 1087.4 451.289 1087.4 451.289L1089.4 456.289C1089.4 456.289 1085.9 446.789 1086.4 444.289C1086.9 441.789 1089.9 440.789 1089.9 440.789L1092.4 450.789C1092.4 450.789 1090.27 442.289 1089.9 439.289C1089.52 436.289 1092.9 436.289 1092.9 436.289" stroke="#063F58" stroke-width="2" stroke-linecap="round" stroke-linejoin="bevel"/>
<path d="M895.71 343.623C890.401 349.255 892.52 359.221 899.523 361.561C903.1 363.117 906.505 364.577 909.781 365.955C909.781 365.955 907.946 381.878 900.785 386.33C895.404 389.676 886.463 386.888 881.553 384.899C879.456 384.049 876.985 384.481 875.517 386.204C868.986 393.875 866.989 398.699 863.651 405.798C863.25 406.65 864.152 407.577 865.022 407.214C867.953 405.99 872.766 404.17 876.166 403.844C881.374 403.343 890.772 413.942 909.781 407.847C924.249 403.207 932.979 375.086 932.979 375.086C938.382 377.033 943.727 378.815 949.297 380.519C949.297 380.519 962.033 395.456 963.797 408.347C965.43 420.278 958.315 437.488 955.197 444.304C954.576 445.661 955.566 447.242 957.06 447.242H982.885C984.517 447.242 985.462 445.394 984.507 444.072L980.297 438.242C980.297 438.242 988.966 420.093 986.797 407.847C985.301 399.399 977.797 386.33 977.797 386.33C978.942 386.604 981.114 386.053 982.297 386.33C995.806 385.504 993.797 380.519 993.797 371.742C993.797 371.742 1014.61 379.733 1024.8 370.242C1032.64 362.933 1030.93 348.521 1029.84 342.696C1029.6 341.407 1030.58 340.165 1031.89 340.165H1035.16C1035.86 340.165 1036.52 339.792 1036.88 339.185L1037.72 337.772C1038.08 337.164 1038.73 336.792 1039.44 336.792H1043.55C1044.32 336.792 1045.01 336.361 1045.34 335.674C1046.32 333.605 1046.78 332.255 1046.53 330.989C1046.43 330.495 1046.04 330.126 1045.58 329.92C1035.67 325.469 1029.42 322.854 1016.64 321.982C1014.38 321.828 1012.33 323.287 1011.69 325.462C1009.48 332.972 1008.37 338.336 1008.67 346.403C1008.72 347.631 1007.69 348.642 1006.47 348.531L993.797 347.382C992.968 322.953 989.108 308.098 980.297 279.742C978.602 271.77 964.131 271.03 958.822 276.663C938.871 293.748 926.447 306.236 913.309 321.78C913.309 321.78 898.303 312.42 888.001 315.775C875.561 319.827 873.798 338.967 870.01 341.795C866.223 344.624 863.513 340.863 860.068 342.796C856.826 344.615 855.334 348.301 856.281 351.303C857.229 354.305 871.904 359.309 877.112 358.809C882.32 358.308 892.262 336.792 892.262 336.792L898.417 340.165C897.528 341.296 896.627 342.448 895.71 343.623Z" fill="#7BBB96"/>
<path d="M951 312C954.639 315.982 956.758 315.834 960.5 313.5" stroke="#063F58" stroke-width="2" stroke-linecap="round" stroke-linejoin="bevel"/>
<path d="M967.5 317C970.181 320.797 971.742 320.656 974.5 318.43" stroke="#063F58" stroke-width="2" stroke-linecap="round" stroke-linejoin="bevel"/>
<path d="M959.5 326C962.181 329.797 963.742 329.656 966.5 327.43" stroke="#063F58" stroke-width="2" stroke-linecap="round" stroke-linejoin="bevel"/>
<path d="M1023 339.523C1026.5 340 1027 340 1030 340" stroke="#063F58" stroke-width="2" stroke-linecap="round" stroke-linejoin="bevel"/>
<path d="M1038 331C1041.5 331.477 1042 331.477 1045 331.477" stroke="#063F58" stroke-width="2" stroke-linecap="round" stroke-linejoin="bevel"/>
<path d="M857.5 346H865M867.5 342L865 348.5M872 342V346" stroke="#063F58" stroke-width="2" stroke-linecap="round" stroke-linejoin="bevel"/>
<path d="M1030 336C1032.32 335.072 1033.95 335.221 1037 336.477" stroke="#063F58" stroke-width="2" stroke-linecap="round" stroke-linejoin="bevel"/>
<path d="M665.161 196.74L674.854 176.344L695.451 185.633L682.527 206.231L665.161 196.74Z" fill="#003F58"/>
<path d="M581.964 200.576L571.463 185.633L585.8 173.113L597.109 192.297L581.964 200.576Z" fill="#003F58"/>
<path d="M585.396 255.705L579.54 270.042H547.23L530.857 258.936H527L538.143 303.967H732.808C735.635 290.034 740.886 261.52 739.27 258.936C737.655 256.351 731.462 263.378 728.568 267.215H697.672L693.431 255.705C698.345 252.339 711.04 243.669 722.51 235.915C733.98 228.161 731.327 216.529 728.568 211.683C725.673 206.904 718.188 193.913 711.403 180.181C704.618 166.449 696.595 163.69 693.431 164.026C687.71 164.632 675.984 167.661 674.853 174.931C673.439 184.018 690.806 186.239 694.643 185.028C697.712 184.058 695.114 191.086 693.431 194.72L697.672 220.164L680.911 229.655L655.871 180.181C654.256 175.402 648.399 165.843 637.899 165.843C627.398 165.843 620.734 175.402 618.715 180.181L594.281 231.877L573.482 220.164L579.54 194.72C576.847 193.105 571.422 189.147 571.26 186.239C571.058 182.604 579.54 181.797 583.174 186.239C586.809 190.682 596.502 184.018 596.3 172.508C596.139 163.299 585.059 164.228 579.54 165.843C576.376 168.738 569.201 174.123 565.808 172.508C562.416 170.892 562.51 167.392 562.981 165.843C562.173 164.497 559.871 162.612 557.125 165.843C554.379 169.074 558.269 176.748 560.558 180.181C559.144 183.075 554.5 192.66 547.23 207.846C539.96 223.031 545.413 231.54 549.047 233.896L585.396 255.705Z" fill="#F05C40"/>
<path d="M630.227 199.365V205.827M641.939 199.365V205.827M634.063 216.731C637.362 217.135 644.806 216.57 648.199 211.077" stroke="black" stroke-width="3" stroke-linecap="round"/>
<path d="M591.654 308.006H569.037L588.827 274.687L600.539 294.072L591.654 308.006Z" fill="#073E55"/>
<path d="M611.646 274.686H589.029L608.819 308.006L620.531 288.014L611.646 274.686Z" fill="#D4B6EC"/>
<path d="M631.435 308.006H608.818L628.608 274.687L640.32 294.072L631.435 308.006Z" fill="#073E55"/>
<path d="M651.427 274.686H628.811L648.6 308.006L660.312 288.014L651.427 274.686Z" fill="#D4B6EC"/>
<path d="M671.419 307.198H648.803L668.592 273.879L680.305 293.264L671.419 307.198Z" fill="#073E55"/>
<path d="M691.41 273.879H668.793L688.583 307.198H712.007L691.41 273.879Z" fill="#D4B6EC"/>
<path d="M611.242 274.485H588.625L608.415 241.165L620.127 260.551L611.242 274.485Z" fill="#073E55"/>
<path d="M631.234 241.165H608.617L628.407 274.485L640.119 254.493L631.234 241.165Z" fill="#D4B6EC"/>
<path d="M651.224 273.677H628.607L648.397 240.357L660.109 259.743L651.224 273.677Z" fill="#073E55"/>
<path d="M671.216 240.357H648.6L668.389 273.677H691.814L671.216 240.357Z" fill="#D4B6EC"/>
<path d="M806.715 196.862L797.291 179.313C796.185 177.253 796.654 174.701 798.421 173.169L815.478 158.386C816.953 157.108 819.038 156.805 820.816 157.61L837.816 165.308C840.999 166.75 841.76 170.928 839.289 173.399L814.656 198.032C812.286 200.402 808.301 199.815 806.715 196.862Z" fill="#063F58"/>
<path d="M758.451 203.263C734.919 160.518 714.141 104.739 723.839 94.5808C733.797 84.1478 775.241 92.1558 834.517 125.004C839.762 127.91 841.158 134.813 837.482 139.549C815.366 168.043 800.891 182.098 773.372 205.833C768.671 209.888 761.445 208.701 758.451 203.263Z" fill="#E3D6BD"/>
<circle cx="775.398" cy="140.289" r="27" stroke="#063F58" stroke-width="2"/>
<path d="M726.899 125.289C740.38 117.071 747.225 109.702 758.899 94.2887M745.674 178.484C759.112 182.564 767.334 186.668 783.174 196.484M809.898 113.289C815.177 128.074 819.11 135.639 829.898 146.289" stroke="#063F58" stroke-width="2" stroke-linecap="round"/>
<circle cx="775.398" cy="140.289" r="23" fill="#FDC93A" stroke="#063F58" stroke-width="2"/>
<path d="M764.398 133.789L765.898 139.789M774.398 131.289L774.898 133.789L775.398 136.289M766.898 146.289C773.398 150.289 781.398 144.789 781.398 137.789M790.398 156.289C790.398 156.289 784.898 146.789 785.898 144.289C786.898 141.789 789.398 143.289 789.398 143.289L791.398 148.289C791.398 148.289 787.898 138.789 788.398 136.289C788.898 133.789 791.898 132.789 791.898 132.789L794.398 142.789C794.398 142.789 792.273 134.289 791.898 131.289C791.523 128.289 794.898 128.289 794.898 128.289" stroke="#063F58" stroke-width="2" stroke-linecap="round" stroke-linejoin="bevel"/>
<path d="M597.71 35.6229C592.401 41.2553 594.52 51.2207 601.523 53.5605C605.1 55.1168 608.505 56.5772 611.781 57.9553C611.781 57.9553 609.946 73.8779 602.785 78.3301C597.404 81.6757 588.463 78.8881 583.553 76.8992C581.456 76.0494 578.985 76.4812 577.517 78.2045C570.986 85.8751 568.989 90.6994 565.651 97.7975C565.25 98.6503 566.152 99.5772 567.022 99.2142C569.953 97.9902 574.766 96.1705 578.166 95.8438C583.374 95.3434 592.772 105.942 611.781 99.8469C626.249 95.2072 634.979 67.0862 634.979 67.0862C640.382 69.0331 645.727 70.815 651.297 72.5191C651.297 72.5191 664.033 87.4565 665.797 100.347C667.43 112.278 660.315 129.488 657.197 136.304C656.576 137.661 657.566 139.242 659.06 139.242H684.885C686.517 139.242 687.462 137.394 686.507 136.072L682.297 130.242C682.297 130.242 690.966 112.093 688.797 99.8469C687.301 91.3995 679.797 78.3301 679.797 78.3301C680.942 78.6037 683.114 78.0528 684.297 78.3301C697.806 77.504 695.797 72.5191 695.797 63.7424C695.797 63.7424 716.607 71.7331 726.797 62.2424C734.644 54.9334 732.933 40.521 731.843 34.6961C731.602 33.4068 732.581 32.1648 733.893 32.1648H737.158C737.864 32.1648 738.518 31.7923 738.878 31.1848L739.716 29.7715C740.076 29.164 740.73 28.7915 741.436 28.7915H745.554C746.315 28.7915 747.014 28.3613 747.34 27.6736C748.319 25.6048 748.776 24.2548 748.528 22.9891C748.432 22.4951 748.039 22.1263 747.58 21.92C737.674 17.4691 731.424 14.854 718.642 13.9819C716.38 13.8276 714.326 15.2869 713.686 17.4622C711.478 24.9719 710.373 30.3356 710.675 38.4029C710.721 39.6307 709.69 40.6421 708.467 40.5312L695.797 39.3824C694.968 14.9534 691.108 0.0981331 682.297 -28.2576C680.602 -36.2298 666.131 -36.9697 660.822 -31.3372C640.871 -14.2518 628.447 -1.7638 615.309 13.7799C615.309 13.7799 600.303 4.4195 590.001 7.77518C577.561 11.8275 575.798 30.9672 572.01 33.7954C568.223 36.6237 565.513 32.8634 562.068 34.7962C558.826 36.6149 557.334 40.3005 558.281 43.3028C559.229 46.3052 573.904 51.3091 579.112 50.8087C584.32 50.3083 594.262 28.7915 594.262 28.7915L600.417 32.1648C599.528 33.2957 598.627 34.4479 597.71 35.6229Z" fill="#7BBB96"/>
<path d="M653 4C656.639 7.98168 658.758 7.83421 662.5 5.5" stroke="#063F58" stroke-width="2" stroke-linecap="round" stroke-linejoin="bevel"/>
<path d="M669.5 9C672.181 12.797 673.742 12.6564 676.5 10.4304" stroke="#063F58" stroke-width="2" stroke-linecap="round" stroke-linejoin="bevel"/>
<path d="M661.5 18C664.181 21.797 665.742 21.6564 668.5 19.4304" stroke="#063F58" stroke-width="2" stroke-linecap="round" stroke-linejoin="bevel"/>
<path d="M725 31.5232C728.5 32 729 32 732 32" stroke="#063F58" stroke-width="2" stroke-linecap="round" stroke-linejoin="bevel"/>
<path d="M740 23C743.5 23.4768 744 23.4768 747 23.4768" stroke="#063F58" stroke-width="2" stroke-linecap="round" stroke-linejoin="bevel"/>
<path d="M559.5 38H567M569.5 34L567 40.5M574 34V38" stroke="#063F58" stroke-width="2" stroke-linecap="round" stroke-linejoin="bevel"/>
<path d="M732 28.0001C734.322 27.0723 735.946 27.2209 739 28.4769" stroke="#063F58" stroke-width="2" stroke-linecap="round" stroke-linejoin="bevel"/>
<path d="M1111.16 826.74L1120.85 806.344L1141.45 815.633L1128.53 836.231L1111.16 826.74Z" fill="#003F58"/>
<path d="M1027.96 830.576L1017.46 815.633L1031.8 803.113L1043.11 822.297L1027.96 830.576Z" fill="#003F58"/>
<path d="M1031.4 885.705L1025.54 900.042H993.23L976.857 888.936H973L984.143 933.967H1178.81C1181.64 920.034 1186.89 891.52 1185.27 888.936C1183.65 886.351 1177.46 893.378 1174.57 897.215H1143.67L1139.43 885.705C1144.34 882.339 1157.04 873.669 1168.51 865.915C1179.98 858.161 1177.33 846.529 1174.57 841.683C1171.67 836.904 1164.19 823.913 1157.4 810.181C1150.62 796.449 1142.59 793.69 1139.43 794.026C1133.71 794.632 1121.98 797.661 1120.85 804.931C1119.44 814.018 1136.81 816.239 1140.64 815.028C1143.71 814.058 1141.11 821.086 1139.43 824.72L1143.67 850.164L1126.91 859.655L1101.87 810.181C1100.26 805.402 1094.4 795.843 1083.9 795.843C1073.4 795.843 1066.73 805.402 1064.72 810.181L1040.28 861.877L1019.48 850.164L1025.54 824.72C1022.85 823.105 1017.42 819.147 1017.26 816.239C1017.06 812.604 1025.54 811.797 1029.17 816.239C1032.81 820.682 1042.5 814.018 1042.3 802.508C1042.14 793.299 1031.06 794.228 1025.54 795.843C1022.38 798.738 1015.2 804.123 1011.81 802.508C1008.42 800.892 1008.51 797.392 1008.98 795.843C1008.17 794.497 1005.87 792.612 1003.12 795.843C1000.38 799.074 1004.27 806.748 1006.56 810.181C1005.14 813.075 1000.5 822.66 993.23 837.846C985.96 853.031 991.413 861.54 995.047 863.896L1031.4 885.705Z" fill="#F05C40"/>
<path d="M1076.23 829.365V835.827M1087.94 829.365V835.827M1080.06 846.731C1083.36 847.135 1090.81 846.569 1094.2 841.077" stroke="black" stroke-width="3" stroke-linecap="round"/>
<path d="M1204.45 833.263C1180.92 790.518 1160.14 734.739 1169.84 724.581C1179.8 714.148 1221.24 722.156 1280.52 755.004C1285.76 757.91 1287.16 764.813 1283.48 769.549C1261.37 798.043 1246.89 812.098 1219.37 835.833C1214.67 839.888 1207.45 838.701 1204.45 833.263Z" fill="#E3D6BD"/>
<circle cx="1221.4" cy="770.289" r="27" stroke="#063F58" stroke-width="2"/>
<path d="M1172.9 755.289C1186.38 747.071 1193.22 739.702 1204.9 724.289M1191.67 808.484C1205.11 812.564 1213.33 816.668 1229.17 826.484M1255.9 743.289C1261.18 758.074 1265.11 765.639 1275.9 776.289" stroke="#063F58" stroke-width="2" stroke-linecap="round"/>
<path d="M1043.71 665.623C1038.4 671.255 1040.52 681.221 1047.52 683.561C1051.1 685.117 1054.5 686.577 1057.78 687.955C1057.78 687.955 1055.95 703.878 1048.79 708.33C1043.4 711.676 1034.46 708.888 1029.55 706.899C1027.46 706.049 1024.98 706.481 1023.52 708.204C1016.99 715.875 1014.99 720.699 1011.65 727.798C1011.25 728.65 1012.15 729.577 1013.02 729.214C1015.95 727.99 1020.77 726.17 1024.17 725.844C1029.37 725.343 1038.77 735.942 1057.78 729.847C1072.25 725.207 1080.98 697.086 1080.98 697.086C1086.38 699.033 1091.73 700.815 1097.3 702.519C1097.3 702.519 1110.03 717.456 1111.8 730.347C1113.43 742.278 1106.32 759.488 1103.2 766.304C1102.58 767.661 1103.57 769.242 1105.06 769.242H1130.89C1132.52 769.242 1133.46 767.394 1132.51 766.072L1128.3 760.242C1128.3 760.242 1136.97 742.093 1134.8 729.847C1133.3 721.399 1125.8 708.33 1125.8 708.33C1126.94 708.604 1129.11 708.053 1130.3 708.33C1143.81 707.504 1141.8 702.519 1141.8 693.742C1141.8 693.742 1162.61 701.733 1172.8 692.242C1180.64 684.933 1178.93 670.521 1177.84 664.696C1177.6 663.407 1178.58 662.165 1179.89 662.165H1183.16C1183.86 662.165 1184.52 661.792 1184.88 661.185L1185.72 659.772C1186.08 659.164 1186.73 658.792 1187.44 658.792H1191.55C1192.32 658.792 1193.01 658.361 1193.34 657.674C1194.32 655.605 1194.78 654.255 1194.53 652.989C1194.43 652.495 1194.04 652.126 1193.58 651.92C1183.67 647.469 1177.42 644.854 1164.64 643.982C1162.38 643.828 1160.33 645.287 1159.69 647.462C1157.48 654.972 1156.37 660.336 1156.67 668.403C1156.72 669.631 1155.69 670.642 1154.47 670.531L1141.8 669.382C1140.97 644.953 1137.11 630.098 1128.3 601.742C1126.6 593.77 1112.13 593.03 1106.82 598.663C1086.87 615.748 1074.45 628.236 1061.31 643.78C1061.31 643.78 1046.3 634.42 1036 637.775C1023.56 641.827 1021.8 660.967 1018.01 663.795C1014.22 666.624 1011.51 662.863 1008.07 664.796C1004.83 666.615 1003.33 670.301 1004.28 673.303C1005.23 676.305 1019.9 681.309 1025.11 680.809C1030.32 680.308 1040.26 658.792 1040.26 658.792L1046.42 662.165C1045.53 663.296 1044.63 664.448 1043.71 665.623Z" fill="#7BBB96"/>
<path d="M1099 634C1102.64 637.982 1104.76 637.834 1108.5 635.5" stroke="#063F58" stroke-width="2" stroke-linecap="round" stroke-linejoin="bevel"/>
<path d="M1115.5 639C1118.18 642.797 1119.74 642.656 1122.5 640.43" stroke="#063F58" stroke-width="2" stroke-linecap="round" stroke-linejoin="bevel"/>
<path d="M1107.5 648C1110.18 651.797 1111.74 651.656 1114.5 649.43" stroke="#063F58" stroke-width="2" stroke-linecap="round" stroke-linejoin="bevel"/>
<path d="M1171 661.523C1174.5 662 1175 662 1178 662" stroke="#063F58" stroke-width="2" stroke-linecap="round" stroke-linejoin="bevel"/>
<path d="M1186 653C1189.5 653.477 1190 653.477 1193 653.477" stroke="#063F58" stroke-width="2" stroke-linecap="round" stroke-linejoin="bevel"/>
<path d="M1005.5 668H1013M1015.5 664L1013 670.5M1020 664V668" stroke="#063F58" stroke-width="2" stroke-linecap="round" stroke-linejoin="bevel"/>
<path d="M1178 658C1180.32 657.072 1181.95 657.221 1185 658.477" stroke="#063F58" stroke-width="2" stroke-linecap="round" stroke-linejoin="bevel"/>
<path d="M1216.16 253.74L1225.85 233.344L1246.45 242.633L1233.53 263.231L1216.16 253.74Z" fill="#003F58"/>
<path d="M1132.96 257.576L1122.46 242.633L1136.8 230.113L1148.11 249.297L1132.96 257.576Z" fill="#003F58"/>
<path d="M1136.4 312.705L1130.54 327.042H1098.23L1081.86 315.936H1078L1089.14 360.967H1283.81C1286.64 347.034 1291.89 318.52 1290.27 315.936C1288.65 313.351 1282.46 320.378 1279.57 324.215H1248.67L1244.43 312.705C1249.34 309.339 1262.04 300.669 1273.51 292.915C1284.98 285.161 1282.33 273.529 1279.57 268.683C1276.67 263.904 1269.19 250.913 1262.4 237.181C1255.62 223.449 1247.59 220.69 1244.43 221.026C1238.71 221.632 1226.98 224.661 1225.85 231.931C1224.44 241.018 1241.81 243.239 1245.64 242.028C1248.71 241.058 1246.11 248.086 1244.43 251.72L1248.67 277.164L1231.91 286.655L1206.87 237.181C1205.26 232.402 1199.4 222.843 1188.9 222.843C1178.4 222.843 1171.73 232.402 1169.72 237.181L1145.28 288.877L1124.48 277.164L1130.54 251.72C1127.85 250.105 1122.42 246.147 1122.26 243.239C1122.06 239.604 1130.54 238.797 1134.17 243.239C1137.81 247.682 1147.5 241.018 1147.3 229.508C1147.14 220.299 1136.06 221.228 1130.54 222.843C1127.38 225.738 1120.2 231.123 1116.81 229.508C1113.42 227.892 1113.51 224.392 1113.98 222.843C1113.17 221.497 1110.87 219.612 1108.12 222.843C1105.38 226.074 1109.27 233.748 1111.56 237.181C1110.14 240.075 1105.5 249.66 1098.23 264.846C1090.96 280.031 1096.41 288.54 1100.05 290.896L1136.4 312.705Z" fill="#F05C40"/>
<path d="M1181.23 256.365V262.827M1192.94 256.365V262.827M1185.06 273.731C1188.36 274.135 1195.81 273.57 1199.2 268.077" stroke="black" stroke-width="3" stroke-linecap="round"/>
<path d="M1142.65 365.006H1120.04L1139.83 331.687L1151.54 351.072L1142.65 365.006Z" fill="#073E55"/>
<path d="M1162.65 331.686H1140.03L1159.82 365.006L1171.53 345.014L1162.65 331.686Z" fill="#D4B6EC"/>
<path d="M1182.44 365.006H1159.82L1179.61 331.687L1191.32 351.072L1182.44 365.006Z" fill="#073E55"/>
<path d="M1202.43 331.686H1179.81L1199.6 365.006L1211.31 345.014L1202.43 331.686Z" fill="#D4B6EC"/>
<path d="M1162.24 331.485H1139.62L1159.41 298.165L1171.13 317.551L1162.24 331.485Z" fill="#073E55"/>
<path d="M1182.23 298.165H1159.62L1179.41 331.485L1191.12 311.493L1182.23 298.165Z" fill="#D4B6EC"/>
<path d="M1202.22 330.677H1179.61L1199.4 297.357L1211.11 316.743L1202.22 330.677Z" fill="#073E55"/>
<path d="M1148.71 92.6229C1143.4 98.2553 1145.52 108.221 1152.52 110.561C1156.1 112.117 1159.5 113.577 1162.78 114.955C1162.78 114.955 1160.95 130.878 1153.79 135.33C1148.4 138.676 1139.46 135.888 1134.55 133.899C1132.46 133.049 1129.98 133.481 1128.52 135.204C1121.99 142.875 1119.99 147.699 1116.65 154.798C1116.25 155.65 1117.15 156.577 1118.02 156.214C1120.95 154.99 1125.77 153.17 1129.17 152.844C1134.37 152.343 1143.77 162.942 1162.78 156.847C1177.25 152.207 1185.98 124.086 1185.98 124.086C1191.38 126.033 1196.73 127.815 1202.3 129.519C1202.3 129.519 1215.03 144.456 1216.8 157.347C1218.43 169.278 1211.32 186.488 1208.2 193.304C1207.58 194.661 1208.57 196.242 1210.06 196.242H1235.89C1237.52 196.242 1238.46 194.394 1237.51 193.072L1233.3 187.242C1233.3 187.242 1241.97 169.093 1239.8 156.847C1238.3 148.399 1230.8 135.33 1230.8 135.33C1231.94 135.604 1234.11 135.053 1235.3 135.33C1248.81 134.504 1246.8 129.519 1246.8 120.742C1246.8 120.742 1267.61 128.733 1277.8 119.242C1285.64 111.933 1283.93 97.521 1282.84 91.6961C1282.6 90.4068 1283.58 89.1648 1284.89 89.1648H1288.16C1288.86 89.1648 1289.52 88.7923 1289.88 88.1848L1290.72 86.7715C1291.08 86.164 1291.73 85.7915 1292.44 85.7915H1296.55C1297.32 85.7915 1298.01 85.3613 1298.34 84.6736C1299.32 82.6048 1299.78 81.2548 1299.53 79.9891C1299.43 79.4951 1299.04 79.1263 1298.58 78.92C1288.67 74.4691 1282.42 71.854 1269.64 70.9819C1267.38 70.8276 1265.33 72.2869 1264.69 74.4622C1262.48 81.9719 1261.37 87.3356 1261.67 95.4029C1261.72 96.6307 1260.69 97.6421 1259.47 97.5312L1246.8 96.3824C1245.97 71.9534 1242.11 57.0981 1233.3 28.7424C1231.6 20.7702 1217.13 20.0303 1211.82 25.6628C1191.87 42.7482 1179.45 55.2362 1166.31 70.7799C1166.31 70.7799 1151.3 61.4195 1141 64.7752C1128.56 68.8275 1126.8 87.9672 1123.01 90.7954C1119.22 93.6237 1116.51 89.8634 1113.07 91.7962C1109.83 93.6149 1108.33 97.3005 1109.28 100.303C1110.23 103.305 1124.9 108.309 1130.11 107.809C1135.32 107.308 1145.26 85.7915 1145.26 85.7915L1151.42 89.1648C1150.53 90.2957 1149.63 91.4479 1148.71 92.6229Z" fill="#7BBB96"/>
<path d="M1110.5 95H1118M1120.5 91L1118 97.5M1125 91V95" stroke="#063F58" stroke-width="2" stroke-linecap="round" stroke-linejoin="bevel"/>
<path d="M612.715 828.862L603.291 811.313C602.185 809.253 602.654 806.701 604.421 805.169L621.478 790.386C622.953 789.108 625.038 788.805 626.816 789.61L643.816 797.308C646.999 798.75 647.76 802.928 645.289 805.399L620.656 830.032C618.286 832.402 614.301 831.815 612.715 828.862Z" fill="#063F58"/>
<path d="M564.451 835.263C540.919 792.518 520.141 736.739 529.839 726.581C539.797 716.148 581.241 724.156 640.517 757.004C645.762 759.91 647.158 766.813 643.482 771.549C621.366 800.043 606.891 814.098 579.372 837.833C574.671 841.888 567.445 840.701 564.451 835.263Z" fill="#E3D6BD"/>
<circle cx="581.398" cy="772.289" r="27" stroke="#063F58" stroke-width="2"/>
<path d="M532.899 757.289C546.38 749.071 553.225 741.702 564.899 726.289M551.674 810.484C565.112 814.564 573.334 818.668 589.174 828.484M615.898 745.289C621.177 760.074 625.11 767.639 635.898 778.289" stroke="#063F58" stroke-width="2" stroke-linecap="round"/>
<circle cx="581.398" cy="772.289" r="23" fill="#FDC93A" stroke="#063F58" stroke-width="2"/>
<path d="M570.398 765.789L571.898 771.789M580.398 763.289L580.898 765.789L581.398 768.289M572.898 778.289C579.398 782.289 587.398 776.789 587.398 769.789M596.398 788.289C596.398 788.289 590.898 778.789 591.898 776.289C592.898 773.789 595.398 775.289 595.398 775.289L597.398 780.289C597.398 780.289 593.898 770.789 594.398 768.289C594.898 765.789 597.898 764.789 597.898 764.789L600.398 774.789C600.398 774.789 598.273 766.289 597.898 763.289C597.523 760.289 600.898 760.289 600.898 760.289" stroke="#063F58" stroke-width="2" stroke-linecap="round" stroke-linejoin="bevel"/>
<path d="M999.161 129.74L1008.85 109.344L1029.45 118.633L1016.53 139.231L999.161 129.74Z" fill="#003F58"/>
<path d="M915.964 133.576L905.463 118.633L919.8 106.113L931.109 125.297L915.964 133.576Z" fill="#003F58"/>
<path d="M919.396 188.705L913.54 203.042H881.23L864.857 191.936H861L872.143 236.967H1066.81C1069.64 223.034 1074.89 194.52 1073.27 191.936C1071.65 189.351 1065.46 196.378 1062.57 200.215H1031.67L1027.43 188.705C1032.34 185.339 1045.04 176.669 1056.51 168.915C1067.98 161.161 1065.33 149.529 1062.57 144.683C1059.67 139.904 1052.19 126.913 1045.4 113.181C1038.62 99.449 1030.59 96.6896 1027.43 97.0263C1021.71 97.632 1009.98 100.661 1008.85 107.931C1007.44 117.018 1024.81 119.239 1028.64 118.028C1031.71 117.058 1029.11 124.086 1027.43 127.72L1031.67 153.164L1014.91 162.655L989.871 113.181C988.256 108.402 982.399 98.8434 971.899 98.8434C961.398 98.8434 954.734 108.402 952.715 113.181L928.281 164.877L907.482 153.164L913.54 127.72C910.847 126.105 905.422 122.147 905.26 119.239C905.058 115.604 913.54 114.797 917.174 119.239C920.809 123.682 930.502 117.018 930.3 105.508C930.139 96.2994 919.059 97.2281 913.54 98.8434C910.376 101.738 903.201 107.123 899.808 105.508C896.416 103.892 896.51 100.392 896.981 98.8434C896.173 97.4972 893.871 95.6125 891.125 98.8434C888.379 102.074 892.269 109.748 894.558 113.181C893.144 116.075 888.5 125.66 881.23 140.846C873.96 156.031 879.413 164.54 883.047 166.896L919.396 188.705Z" fill="#F05C40"/>
<path d="M964.227 132.365V138.827M975.939 132.365V138.827M968.063 149.731C971.362 150.135 978.806 149.57 982.199 144.077" stroke="black" stroke-width="3" stroke-linecap="round"/>
<path d="M925.654 241.006H903.037L922.827 207.687L934.539 227.072L925.654 241.006Z" fill="#073E55"/>
<path d="M945.646 207.686H923.029L942.819 241.006L954.531 221.014L945.646 207.686Z" fill="#D4B6EC"/>
<path d="M965.435 241.006H942.818L962.608 207.687L974.32 227.072L965.435 241.006Z" fill="#073E55"/>
<path d="M985.427 207.686H962.811L982.6 241.006L994.312 221.014L985.427 207.686Z" fill="#D4B6EC"/>
<path d="M1005.42 240.198H982.803L1002.59 206.879L1014.3 226.264L1005.42 240.198Z" fill="#073E55"/>
<path d="M1025.41 206.879H1002.79L1022.58 240.198H1046.01L1025.41 206.879Z" fill="#D4B6EC"/>
<path d="M945.242 207.485H922.625L942.415 174.165L954.127 193.551L945.242 207.485Z" fill="#073E55"/>
<path d="M965.234 174.165H942.617L962.407 207.485L974.119 187.493L965.234 174.165Z" fill="#D4B6EC"/>
<path d="M985.224 206.677H962.607L982.397 173.357L994.109 192.743L985.224 206.677Z" fill="#073E55"/>
<path d="M1005.22 173.357H982.6L1002.39 206.677H1025.81L1005.22 173.357Z" fill="#D4B6EC"/>
<path d="M96.1608 -2.26031L105.854 -22.6558L126.451 -13.3667L113.527 7.23063L96.1608 -2.26031Z" fill="#003F58"/>
<path d="M12.9635 1.57645L2.46289 -13.3667L16.8003 -25.8867L28.1086 -6.70289L12.9635 1.57645Z" fill="#003F58"/>
<path d="M16.3957 56.7045L10.5396 71.0419H-21.77L-38.1428 59.9355H-42L-30.8571 104.967H163.808C166.635 91.0335 171.886 62.5203 170.27 59.9355C168.655 57.3507 162.462 64.3781 159.568 68.2149H128.672L124.431 56.7045C129.345 53.339 142.04 44.6692 153.51 36.9149C164.98 29.1606 162.327 17.5292 159.568 12.6827C156.673 7.90368 149.188 -5.08735 142.403 -18.8192C135.618 -32.551 127.595 -35.3104 124.431 -34.9737C118.71 -34.368 106.984 -31.3391 105.853 -24.0692C104.439 -14.9818 121.806 -12.7608 125.643 -13.9724C128.712 -14.9417 126.114 -7.91438 124.431 -4.27955L128.672 21.1643L111.911 30.6552L86.8711 -18.8192C85.2556 -23.5983 79.3995 -33.1566 68.8988 -33.1566C58.3982 -33.1566 51.7344 -23.5983 49.715 -18.8192L25.2809 32.8765L4.48156 21.1643L10.5396 -4.27955C7.84715 -5.89503 2.42182 -9.85296 2.26027 -12.7608C2.05834 -16.3957 10.5396 -17.2034 14.1744 -12.7608C17.8093 -8.31825 27.5022 -14.9821 27.3002 -26.4924C27.1387 -35.7006 16.0592 -34.7719 10.5396 -33.1566C7.37596 -30.2621 0.200535 -24.8769 -3.19197 -26.4924C-6.58448 -28.1079 -6.49025 -31.6083 -6.01907 -33.1566C-6.82681 -34.5028 -9.12886 -36.3875 -11.8752 -33.1566C-14.6215 -29.9256 -10.7309 -22.2521 -8.44229 -18.8192C-9.85583 -15.9248 -14.5003 -6.33959 -21.77 8.84593C-29.0397 24.0314 -23.5874 32.5396 -19.9526 34.8956L16.3957 56.7045Z" fill="#F05C40"/>
<path d="M61.2266 0.364746V6.82667M72.9388 0.364746V6.82667M65.0633 17.7312C68.3616 18.135 75.8063 17.5696 79.1988 12.077" stroke="black" stroke-width="3" stroke-linecap="round"/>
<path d="M22.6538 109.006H0.0371094L19.8267 75.6865L31.539 95.0723L22.6538 109.006Z" fill="#073E55"/>
<path d="M42.646 75.6863H20.0293L39.8189 109.006L51.5312 89.014L42.646 75.6863Z" fill="#D4B6EC"/>
<path d="M62.4351 109.006H39.8184L59.608 75.6865L71.3202 95.0723L62.4351 109.006Z" fill="#073E55"/>
<path d="M82.4273 75.6863H59.8105L79.6002 109.006L91.3124 89.014L82.4273 75.6863Z" fill="#D4B6EC"/>
<path d="M102.419 108.198H79.8027L99.5924 74.8787L111.305 94.2644L102.419 108.198Z" fill="#073E55"/>
<path d="M122.41 74.8787H99.793L119.583 108.198H143.007L122.41 74.8787Z" fill="#D4B6EC"/>
<path d="M42.2417 75.4846H19.625L39.4146 42.1653L51.1269 61.5511L42.2417 75.4846Z" fill="#073E55"/>
<path d="M62.2339 42.1653H39.6172L59.4068 75.4846L71.1191 55.493L62.2339 42.1653Z" fill="#D4B6EC"/>
<path d="M82.2242 74.6767H59.6074L79.3971 41.3574L91.1093 60.7432L82.2242 74.6767Z" fill="#073E55"/>
<path d="M102.216 41.3575H79.5996L99.3892 74.6768H122.814L102.216 41.3575Z" fill="#D4B6EC"/>
<path d="M355.637 143.74L346.842 123.344L328.152 132.633L339.879 153.231L355.637 143.74Z" fill="#003F58"/>
<path d="M431.128 147.576L440.656 132.633L427.647 120.113L417.386 139.297L431.128 147.576Z" fill="#003F58"/>
<path d="M428.013 202.705L433.327 217.042H462.644L477.5 205.936H481L470.889 250.967H294.254C291.689 237.034 286.925 208.52 288.391 205.936C289.857 203.351 295.476 210.378 298.102 214.215H326.137L329.984 202.705C325.526 199.339 314.007 190.669 303.599 182.915C293.192 175.161 295.598 163.529 298.102 158.683C300.728 153.904 307.52 140.913 313.677 127.181C319.833 113.449 327.114 110.69 329.984 111.026C335.176 111.632 345.816 114.661 346.842 121.931C348.124 131.018 332.366 133.239 328.885 132.028C326.1 131.058 328.457 138.086 329.984 141.72L326.137 167.164L341.345 176.655L364.065 127.181C365.531 122.402 370.845 112.843 380.373 112.843C389.901 112.843 395.948 122.402 397.78 127.181L419.951 178.877L438.824 167.164L433.327 141.72C435.77 140.105 440.693 136.147 440.839 133.239C441.022 129.604 433.327 128.797 430.029 133.239C426.73 137.682 417.935 131.018 418.119 119.508C418.265 110.299 428.318 111.228 433.327 112.843C436.197 115.738 442.708 121.123 445.786 119.508C448.865 117.892 448.779 114.392 448.352 112.843C449.085 111.497 451.173 109.612 453.665 112.843C456.157 116.074 452.627 123.748 450.551 127.181C451.833 130.075 456.047 139.66 462.644 154.846C469.24 170.031 464.293 178.54 460.995 180.896L428.013 202.705Z" fill="#F05C40"/>
<path d="M387.334 146.365V152.827M376.707 146.365V152.827M383.853 163.731C380.86 164.135 374.105 163.57 371.026 158.077" stroke="black" stroke-width="3" stroke-linecap="round"/>
<path d="M422.336 255.006H442.857L424.901 221.687L414.273 241.072L422.336 255.006Z" fill="#073E55"/>
<path d="M404.195 221.686H424.717L406.76 255.006L396.133 235.014L404.195 221.686Z" fill="#D4B6EC"/>
<path d="M386.238 255.006H406.76L388.803 221.687L378.176 241.072L386.238 255.006Z" fill="#073E55"/>
<path d="M368.097 221.686H388.619L370.662 255.006L360.035 235.014L368.097 221.686Z" fill="#D4B6EC"/>
<path d="M349.957 254.198H370.479L352.522 220.879L341.894 240.264L349.957 254.198Z" fill="#073E55"/>
<path d="M331.818 220.879H352.34L334.383 254.198H313.128L331.818 220.879Z" fill="#D4B6EC"/>
<path d="M404.56 221.485H425.082L407.125 188.165L396.498 207.551L404.56 221.485Z" fill="#073E55"/>
<path d="M386.421 188.165H406.943L388.987 221.485L378.359 201.493L386.421 188.165Z" fill="#D4B6EC"/>
<path d="M368.283 220.677H388.805L370.848 187.357L360.221 206.743L368.283 220.677Z" fill="#073E55"/>
<path d="M350.142 187.357H370.664L352.707 220.677H331.453L350.142 187.357Z" fill="#D4B6EC"/>
<path d="M227.539 143.15L235.861 126.072C236.814 124.117 236.393 121.769 234.82 120.266L219.586 105.717C218.062 104.26 215.787 103.917 213.9 104.858L198.904 112.342C195.94 113.822 195.208 117.723 197.434 120.176L219.341 144.32C221.718 146.94 225.989 146.33 227.539 143.15Z" fill="#063F58"/>
<path d="M271.614 149.001C292.706 106.429 311.106 51.6398 302.393 41.5808C293.348 31.1377 255.679 39.1714 201.809 72.0997C196.995 75.042 195.692 81.4512 198.936 86.0667C218.849 114.392 231.885 128.478 256.168 151.615C260.929 156.152 268.695 154.894 271.614 149.001Z" fill="#E3D6BD"/>
<path d="M255.609 60.2891C242.219 60.2891 231.202 72.2837 231.202 87.2891C231.202 102.294 242.219 114.289 255.609 114.289C268.999 114.289 280.016 102.294 280.016 87.2891C280.016 72.2838 268.999 60.2892 255.609 60.2891Z" stroke="#063F58" stroke-width="2"/>
<path d="M299.616 72.2887C287.383 64.0712 281.172 56.7017 270.58 41.2887M282.579 125.484C270.386 129.564 262.925 133.668 248.553 143.484M224.304 60.2887C219.514 75.0741 215.945 82.6392 206.156 93.2887" stroke="#063F58" stroke-width="2" stroke-linecap="round"/>
<path d="M255.609 64.2891C244.224 64.2892 234.833 74.4929 234.833 87.2891C234.833 100.085 244.224 110.289 255.609 110.289C266.995 110.289 276.387 100.085 276.387 87.2891C276.387 74.4928 266.995 64.2891 255.609 64.2891Z" fill="#FDC93A" stroke="#063F58" stroke-width="2"/>
<path d="M265.59 80.7891L264.229 86.7891M256.516 78.2891L256.062 80.7891L255.609 83.2891M263.321 93.2891C257.423 97.2891 250.164 91.7891 250.164 84.7891M241.998 103.289C241.998 103.289 246.989 93.7891 246.081 91.2891C245.174 88.7891 242.905 90.2891 242.905 90.2891L241.091 95.2891C241.091 95.2891 244.266 85.7891 243.813 83.2891C243.359 80.7891 240.637 79.7891 240.637 79.7891L238.369 89.7891C238.369 89.7891 240.297 81.2891 240.637 78.2891C240.977 75.2891 237.915 75.2891 237.915 75.2891" stroke="#063F58" stroke-width="2" stroke-linecap="round" stroke-linejoin="bevel"/>
<path d="M416.84 -17.3771C421.657 -11.7447 419.734 -1.77932 413.379 0.560509C410.133 2.11678 407.044 3.57719 404.072 4.95531C404.072 4.95531 405.737 20.8779 412.234 25.3301C416.903 28.5296 424.527 26.1199 429.08 24.1638C431.313 23.2047 434.004 23.6863 435.479 25.6177C441.14 33.0326 442.946 37.805 445.907 44.7479C446.277 45.6154 445.34 46.5129 444.482 46.1212C441.807 44.9 437.581 43.1623 434.573 42.8438C429.848 42.3434 421.32 52.9424 404.072 46.8469C390.943 42.2072 383.022 14.0862 383.022 14.0862C378.119 16.0331 373.269 17.815 368.216 19.5191C368.216 19.5191 356.66 34.4565 355.059 47.3473C353.571 59.324 360.083 76.6209 362.894 83.382C363.455 84.73 362.465 86.2425 361.005 86.2425H337.891C336.301 86.2425 335.346 84.4763 336.218 83.1463L340.087 77.2425C340.087 77.2425 332.221 59.0928 334.189 46.8469C335.547 38.3995 342.355 25.3301 342.355 25.3301C341.316 25.6037 339.345 25.0528 338.272 25.3301C326.014 24.504 327.837 19.5191 327.837 10.7424C327.837 10.7424 308.955 18.7331 299.709 9.24243C292.567 1.91176 294.151 -12.5645 295.139 -18.3555C295.356 -19.6298 294.383 -20.8352 293.091 -20.8352H290.469C289.733 -20.8352 289.056 -21.2395 288.708 -21.8877L288.025 -23.156C287.677 -23.8042 287 -24.2085 286.264 -24.2085H282.856C282.068 -24.2085 281.349 -24.6702 281.039 -25.3947C280.171 -27.4239 279.768 -28.7578 279.99 -30.009C280.077 -30.5021 280.451 -30.8823 280.9 -31.1045C289.737 -35.4797 295.375 -38.0758 306.635 -38.9813C308.951 -39.1676 311.046 -37.6375 311.644 -35.3921C313.621 -27.9609 314.609 -22.6156 314.338 -14.605C314.296 -13.3745 315.337 -12.3685 316.562 -12.4909L327.837 -13.6176C328.589 -38.0466 332.092 -52.9019 340.087 -81.2576C341.625 -89.2298 354.756 -89.9697 359.573 -84.3372C377.675 -67.2518 388.949 -54.7638 400.87 -39.2201C400.87 -39.2201 414.487 -48.5805 423.834 -45.2248C435.122 -41.1725 436.722 -22.0328 440.159 -19.2046C443.595 -16.3763 446.054 -20.1366 449.18 -18.2038C452.122 -16.3851 453.476 -12.6995 452.616 -9.69716C451.756 -6.69482 438.44 -1.69093 433.715 -2.19131C428.989 -2.6917 419.968 -24.2085 419.968 -24.2085L414.383 -20.8352C415.189 -19.7043 416.007 -18.5521 416.84 -17.3771Z" fill="#7BBB96"/>
<path d="M98.6389 380.74L89.8438 360.344L71.1542 369.633L82.881 390.231L98.6389 380.74Z" fill="#003F58"/>
<path d="M174.13 384.576L183.658 369.633L170.649 357.113L160.388 376.297L174.13 384.576Z" fill="#003F58"/>
<path d="M171.015 439.705L176.329 454.042H205.646L220.502 442.936H224.002L213.891 487.967H37.2562C34.691 474.034 29.927 445.52 31.3928 442.936C32.8587 440.351 38.4778 447.378 41.1041 451.215H69.1385L72.9863 439.705C68.5277 436.339 57.0086 427.669 46.601 419.915C36.1935 412.161 38.5999 400.529 41.1041 395.683C43.7304 390.904 50.5222 377.913 56.6788 364.181C62.8353 350.449 70.1157 347.69 72.9863 348.026C78.1779 348.632 88.8175 351.661 89.8436 358.931C91.1262 368.018 75.3683 370.239 71.8869 369.028C69.1018 368.058 71.4594 375.086 72.9863 378.72L69.1385 404.164L84.3466 413.655L107.067 364.181C108.533 359.402 113.847 349.843 123.375 349.843C132.903 349.843 138.95 359.402 140.782 364.181L162.953 415.877L181.826 404.164L176.329 378.72C178.772 377.105 183.695 373.147 183.841 370.239C184.024 366.604 176.329 365.797 173.031 370.239C169.732 374.682 160.937 368.018 161.121 356.508C161.267 347.299 171.32 348.228 176.329 349.843C179.199 352.738 185.71 358.123 188.788 356.508C191.867 354.892 191.781 351.392 191.354 349.843C192.087 348.497 194.175 346.612 196.667 349.843C199.159 353.074 195.629 360.748 193.552 364.181C194.835 367.075 199.049 376.66 205.646 391.846C212.242 407.031 207.295 415.54 203.997 417.896L171.015 439.705Z" fill="#F05C40"/>
<path d="M130.336 383.365V389.827M119.709 383.365V389.827M126.855 400.731C123.862 401.135 117.107 400.57 114.028 395.077" stroke="black" stroke-width="3" stroke-linecap="round"/>
<path d="M165.337 492.006H185.859L167.903 458.687L157.275 478.072L165.337 492.006Z" fill="#073E55"/>
<path d="M147.197 458.686H167.719L149.762 492.006L139.135 472.014L147.197 458.686Z" fill="#D4B6EC"/>
<path d="M129.24 492.006H149.762L131.805 458.687L121.178 478.072L129.24 492.006Z" fill="#073E55"/>
<path d="M111.099 458.686H131.621L113.664 492.006L103.037 472.014L111.099 458.686Z" fill="#D4B6EC"/>
<path d="M92.9586 491.198H113.48L95.5238 457.879L84.8964 477.264L92.9586 491.198Z" fill="#073E55"/>
<path d="M74.8199 457.879H95.3418L77.3851 491.198H56.1303L74.8199 457.879Z" fill="#D4B6EC"/>
<path d="M147.562 458.485H168.084L150.127 425.165L139.5 444.551L147.562 458.485Z" fill="#073E55"/>
<path d="M129.423 425.165H149.945L131.989 458.485L121.361 438.493L129.423 425.165Z" fill="#D4B6EC"/>
<path d="M111.285 457.677H131.807L113.85 424.357L103.223 443.743L111.285 457.677Z" fill="#073E55"/>
<path d="M93.1441 424.357H113.666L95.7094 457.677H74.4545L93.1441 424.357Z" fill="#D4B6EC"/>
<path d="M14.6161 386.001C35.7083 343.429 54.1079 288.64 45.3953 278.581C36.35 268.138 -1.31891 276.171 -55.1892 309.1C-60.0029 312.042 -61.3061 318.451 -58.0616 323.067C-38.1494 351.392 -25.1132 365.478 -0.830086 388.615C3.93087 393.152 11.6967 391.894 14.6161 386.001Z" fill="#E3D6BD"/>
<path d="M-1.38867 297.289C-14.7788 297.289 -25.7959 309.284 -25.7959 324.289C-25.7959 339.294 -14.7788 351.289 -1.38867 351.289C12.0013 351.289 23.0176 339.294 23.0176 324.289C23.0176 309.284 12.0013 297.289 -1.38867 297.289Z" stroke="#063F58" stroke-width="2"/>
<path d="M42.6178 309.289C30.3854 301.071 24.1743 293.702 13.5818 278.289M25.5813 362.484C13.3879 366.564 5.92718 370.668 -8.44536 380.484M-32.6944 297.289C-37.4841 312.074 -41.053 319.639 -50.8419 330.289" stroke="#063F58" stroke-width="2" stroke-linecap="round"/>
<path d="M-1.38867 301.289C-12.7741 301.289 -22.165 311.493 -22.165 324.289C-22.165 337.085 -12.7741 347.289 -1.38867 347.289C9.99693 347.289 19.3887 337.085 19.3887 324.289C19.3887 311.493 9.99693 301.289 -1.38867 301.289Z" fill="#FDC93A" stroke="#063F58" stroke-width="2"/>
<path d="M8.5918 317.789L7.23073 323.789M-0.481971 315.289L-0.93566 317.789L-1.38935 320.289M6.32335 330.289C0.425405 334.289 -6.83361 328.789 -6.83361 321.789M-15 340.289C-15 340.289 -10.0094 330.789 -10.9168 328.289C-11.8242 325.789 -14.0926 327.289 -14.0926 327.289L-15.9074 332.289C-15.9074 332.289 -12.7316 322.789 -13.1852 320.289C-13.6389 317.789 -16.3611 316.789 -16.3611 316.789L-18.6295 326.789C-18.6295 326.789 -16.7013 318.289 -16.3611 315.289C-16.0208 312.289 -19.0832 312.289 -19.0832 312.289" stroke="#063F58" stroke-width="2" stroke-linecap="round" stroke-linejoin="bevel"/>
<path d="M159.842 219.623C164.659 225.255 162.736 235.221 156.381 237.561C153.135 239.117 150.046 240.577 147.074 241.955C147.074 241.955 148.739 257.878 155.236 262.33C159.905 265.53 167.529 263.12 172.082 261.164C174.315 260.205 177.006 260.686 178.481 262.618C184.142 270.033 185.948 274.805 188.909 281.748C189.279 282.615 188.342 283.513 187.484 283.121C184.809 281.9 180.583 280.162 177.575 279.844C172.849 279.343 164.322 289.942 147.074 283.847C133.945 279.207 126.024 251.086 126.024 251.086C121.121 253.033 116.271 254.815 111.218 256.519C111.218 256.519 99.6616 271.456 98.0607 284.347C96.5732 296.324 103.085 313.621 105.896 320.382C106.457 321.73 105.467 323.242 104.007 323.242H80.8928C79.3026 323.242 78.3484 321.476 79.22 320.146L83.0889 314.242C83.0889 314.242 75.2229 296.093 77.191 283.847C78.5486 275.399 85.3574 262.33 85.3574 262.33C84.3183 262.604 82.3471 262.053 81.2742 262.33C69.0161 261.504 70.8393 256.519 70.8393 247.742C70.8393 247.742 51.9566 255.733 42.7107 246.242C35.569 238.912 37.1525 224.435 38.1407 218.645C38.3581 217.37 37.3853 216.165 36.0926 216.165H33.4709C32.7349 216.165 32.0583 215.76 31.7096 215.112L31.0273 213.844C30.6786 213.196 30.002 212.792 29.266 212.792H25.8583C25.0702 212.792 24.3513 212.33 24.0414 211.605C23.1731 209.576 22.7701 208.242 22.9917 206.991C23.0791 206.498 23.4534 206.118 23.9022 205.895C32.7394 201.52 38.3771 198.924 49.6373 198.019C51.9533 197.832 54.0484 199.362 54.6459 201.608C56.6233 209.039 57.6112 214.384 57.3397 222.395C57.298 223.625 58.3391 224.631 59.5642 224.509L70.8393 223.382C71.5913 198.953 75.0936 184.098 83.0889 155.742C84.627 147.77 97.7576 147.03 102.575 152.663C120.677 169.748 131.951 182.236 143.872 197.78C143.872 197.78 157.489 188.42 166.836 191.775C178.124 195.827 179.724 214.967 183.161 217.795C186.597 220.624 189.056 216.863 192.182 218.796C195.123 220.615 196.478 224.301 195.618 227.303C194.758 230.305 181.442 235.309 176.717 234.809C171.991 234.308 162.97 212.792 162.97 212.792L157.385 216.165C158.191 217.296 159.009 218.448 159.842 219.623Z" fill="#7BBB96"/>
<path d="M109.672 188C106.37 191.982 104.448 191.834 101.052 189.5" stroke="#063F58" stroke-width="2" stroke-linecap="round" stroke-linejoin="bevel"/>
<path d="M94.7012 193C92.2682 196.797 90.8517 196.656 88.3495 194.43" stroke="#063F58" stroke-width="2" stroke-linecap="round" stroke-linejoin="bevel"/>
<path d="M101.959 202C99.526 205.797 98.1095 205.656 95.6073 203.43" stroke="#063F58" stroke-width="2" stroke-linecap="round" stroke-linejoin="bevel"/>
<path d="M44.3418 215.523C41.166 216 40.7123 216 37.9902 216" stroke="#063F58" stroke-width="2" stroke-linecap="round" stroke-linejoin="bevel"/>
<path d="M30.7305 207C27.5546 207.477 27.101 207.477 24.3788 207.477" stroke="#063F58" stroke-width="2" stroke-linecap="round" stroke-linejoin="bevel"/>
<path d="M194.512 222H187.706M185.438 218L187.706 224.5M181.355 218V222" stroke="#063F58" stroke-width="2" stroke-linecap="round" stroke-linejoin="bevel"/>
<path d="M37.9902 212C35.8837 211.072 34.41 211.221 31.6386 212.477" stroke="#063F58" stroke-width="2" stroke-linecap="round" stroke-linejoin="bevel"/>
<path d="M940.717 865.862L931.293 848.313C930.187 846.253 930.656 843.701 932.423 842.169L949.48 827.386C950.955 826.108 953.04 825.805 954.818 826.61L971.818 834.308C975.001 835.75 975.762 839.928 973.291 842.399L948.658 867.032C946.288 869.402 942.303 868.815 940.717 865.862Z" fill="#063F58"/>
<path d="M892.453 872.263C868.921 829.518 848.143 773.739 857.84 763.581C867.799 753.148 909.242 761.156 968.519 794.004C973.764 796.91 975.16 803.813 971.484 808.549C949.368 837.043 934.893 851.098 907.374 874.833C902.673 878.888 895.447 877.701 892.453 872.263Z" fill="#E3D6BD"/>
<circle cx="909.4" cy="809.289" r="27" stroke="#063F58" stroke-width="2"/>
<path d="M860.9 794.289C874.382 786.071 881.227 778.702 892.9 763.289M879.676 847.484C893.114 851.564 901.336 855.668 917.176 865.484M943.9 782.289C949.179 797.074 953.112 804.639 963.9 815.289" stroke="#063F58" stroke-width="2" stroke-linecap="round"/>
<circle cx="909.4" cy="809.289" r="23" fill="#FDC93A" stroke="#063F58" stroke-width="2"/>
<path d="M898.4 802.789L899.9 808.789M908.4 800.289L908.9 802.789L909.4 805.289M900.9 815.289C907.4 819.289 915.4 813.789 915.4 806.789M924.4 825.289C924.4 825.289 918.9 815.789 919.9 813.289C920.9 810.789 923.4 812.289 923.4 812.289L925.4 817.289C925.4 817.289 921.9 807.789 922.4 805.289C922.9 802.789 925.9 801.789 925.9 801.789L928.4 811.789C928.4 811.789 926.275 803.289 925.9 800.289C925.525 797.289 928.9 797.289 928.9 797.289" stroke="#063F58" stroke-width="2" stroke-linecap="round" stroke-linejoin="bevel"/>
<path d="M729.711 707.623C724.403 713.255 726.522 723.221 733.525 725.561C737.102 727.117 740.507 728.577 743.783 729.955C743.783 729.955 741.948 745.878 734.787 750.33C729.406 753.676 720.465 750.888 715.555 748.899C713.458 748.049 710.987 748.481 709.519 750.204C702.988 757.875 700.991 762.699 697.653 769.798C697.252 770.65 698.154 771.577 699.023 771.214C701.955 769.99 706.768 768.17 710.168 767.844C715.376 767.343 724.774 777.942 743.783 771.847C758.251 767.207 766.981 739.086 766.981 739.086C772.384 741.033 777.729 742.815 783.299 744.519C783.299 744.519 796.034 759.456 797.799 772.347C799.432 784.278 792.317 801.488 789.199 808.304C788.578 809.661 789.568 811.242 791.062 811.242H816.887C818.519 811.242 819.464 809.394 818.509 808.072L814.299 802.242C814.299 802.242 822.968 784.093 820.799 771.847C819.303 763.399 811.799 750.33 811.799 750.33C812.944 750.604 815.116 750.053 816.299 750.33C829.808 749.504 827.799 744.519 827.799 735.742C827.799 735.742 848.609 743.733 858.799 734.242C866.646 726.933 864.935 712.521 863.845 706.696C863.604 705.407 864.583 704.165 865.894 704.165H869.16C869.866 704.165 870.52 703.792 870.88 703.185L871.718 701.772C872.078 701.164 872.732 700.792 873.438 700.792H877.556C878.317 700.792 879.016 700.361 879.342 699.674C880.321 697.605 880.778 696.255 880.53 694.989C880.434 694.495 880.041 694.126 879.582 693.92C869.676 689.469 863.426 686.854 850.644 685.982C848.382 685.828 846.328 687.287 845.688 689.462C843.48 696.972 842.375 702.336 842.677 710.403C842.723 711.631 841.692 712.642 840.469 712.531L827.799 711.382C826.97 686.953 823.11 672.098 814.299 643.742C812.604 635.77 798.133 635.03 792.824 640.663C772.873 657.748 760.449 670.236 747.311 685.78C747.311 685.78 732.305 676.42 722.003 679.775C709.563 683.827 707.8 702.967 704.012 705.795C700.224 708.624 697.515 704.863 694.07 706.796C690.828 708.615 689.336 712.301 690.283 715.303C691.231 718.305 705.906 723.309 711.114 722.809C716.322 722.308 726.264 700.792 726.264 700.792L732.419 704.165C731.53 705.296 730.629 706.448 729.711 707.623Z" fill="#7BBB96"/>
<path d="M785.002 676C788.641 679.982 790.759 679.834 794.502 677.5" stroke="#063F58" stroke-width="2" stroke-linecap="round" stroke-linejoin="bevel"/>
<path d="M801.502 681C804.183 684.797 805.744 684.656 808.502 682.43" stroke="#063F58" stroke-width="2" stroke-linecap="round" stroke-linejoin="bevel"/>
<path d="M793.502 690C796.183 693.797 797.744 693.656 800.502 691.43" stroke="#063F58" stroke-width="2" stroke-linecap="round" stroke-linejoin="bevel"/>
<path d="M857.002 703.523C860.502 704 861.002 704 864.002 704" stroke="#063F58" stroke-width="2" stroke-linecap="round" stroke-linejoin="bevel"/>
<path d="M872.002 695C875.502 695.477 876.002 695.477 879.002 695.477" stroke="#063F58" stroke-width="2" stroke-linecap="round" stroke-linejoin="bevel"/>
<path d="M691.502 710H699.002M701.502 706L699.002 712.5M706.002 706V710" stroke="#063F58" stroke-width="2" stroke-linecap="round" stroke-linejoin="bevel"/>
<path d="M864.002 700C866.323 699.072 867.948 699.221 871.002 700.477" stroke="#063F58" stroke-width="2" stroke-linecap="round" stroke-linejoin="bevel"/>
<path d="M339.711 749.623C334.403 755.255 336.522 765.221 343.525 767.561C347.102 769.117 350.507 770.577 353.783 771.955C353.783 771.955 351.948 787.878 344.787 792.33C339.406 795.676 330.465 792.888 325.555 790.899C323.458 790.049 320.987 790.481 319.519 792.204C312.988 799.875 310.991 804.699 307.653 811.798C307.252 812.65 308.154 813.577 309.023 813.214C311.955 811.99 316.768 810.17 320.168 809.844C325.376 809.343 334.774 819.942 353.783 813.847C368.251 809.207 376.981 781.086 376.981 781.086C382.384 783.033 387.729 784.815 393.299 786.519C393.299 786.519 406.034 801.456 407.799 814.347C409.432 826.278 402.317 843.488 399.199 850.304C398.578 851.661 399.568 853.242 401.062 853.242H426.887C428.519 853.242 429.464 851.394 428.509 850.072L424.299 844.242C424.299 844.242 432.968 826.093 430.799 813.847C429.303 805.399 421.799 792.33 421.799 792.33C422.944 792.604 425.116 792.053 426.299 792.33C439.808 791.504 437.799 786.519 437.799 777.742C437.799 777.742 458.609 785.733 468.799 776.242C476.646 768.933 474.935 754.521 473.845 748.696C473.604 747.407 474.583 746.165 475.894 746.165H479.16C479.866 746.165 480.52 745.792 480.88 745.185L481.718 743.772C482.078 743.164 482.732 742.792 483.438 742.792H487.556C488.317 742.792 489.016 742.361 489.342 741.674C490.321 739.605 490.778 738.255 490.53 736.989C490.434 736.495 490.041 736.126 489.582 735.92C479.676 731.469 473.426 728.854 460.644 727.982C458.382 727.828 456.328 729.287 455.688 731.462C453.48 738.972 452.375 744.336 452.677 752.403C452.723 753.631 451.692 754.642 450.469 754.531L437.799 753.382C436.97 728.953 433.11 714.098 424.299 685.742C422.604 677.77 408.133 677.03 402.824 682.663C382.873 699.748 370.449 712.236 357.311 727.78C357.311 727.78 342.305 718.42 332.003 721.775C319.563 725.827 317.8 744.967 314.012 747.795C310.224 750.624 307.515 746.863 304.07 748.796C300.828 750.615 299.336 754.301 300.283 757.303C301.231 760.305 315.906 765.309 321.114 764.809C326.322 764.308 336.264 742.792 336.264 742.792L342.419 746.165C341.53 747.296 340.629 748.448 339.711 749.623Z" fill="#7BBB96"/>
<path d="M395.002 718C398.641 721.982 400.759 721.834 404.502 719.5" stroke="#063F58" stroke-width="2" stroke-linecap="round" stroke-linejoin="bevel"/>
<path d="M411.502 723C414.183 726.797 415.744 726.656 418.502 724.43" stroke="#063F58" stroke-width="2" stroke-linecap="round" stroke-linejoin="bevel"/>
<path d="M403.502 732C406.183 735.797 407.744 735.656 410.502 733.43" stroke="#063F58" stroke-width="2" stroke-linecap="round" stroke-linejoin="bevel"/>
<path d="M467.002 745.523C470.502 746 471.002 746 474.002 746" stroke="#063F58" stroke-width="2" stroke-linecap="round" stroke-linejoin="bevel"/>
<path d="M482.002 737C485.502 737.477 486.002 737.477 489.002 737.477" stroke="#063F58" stroke-width="2" stroke-linecap="round" stroke-linejoin="bevel"/>
<path d="M301.502 752H309.002M311.502 748L309.002 754.5M316.002 748V752" stroke="#063F58" stroke-width="2" stroke-linecap="round" stroke-linejoin="bevel"/>
<path d="M474.002 742C476.323 741.072 477.948 741.221 481.002 742.477" stroke="#063F58" stroke-width="2" stroke-linecap="round" stroke-linejoin="bevel"/>
</g>
</svg>
