<svg width="1193" height="418" viewBox="0 0 1193 418" fill="none" xmlns="http://www.w3.org/2000/svg">
<path d="M211.5 18.1667C306 64.6666 306 178.167 306 178.167C306 178.167 347.5 152.667 395 178.167C442.5 203.667 434.5 264.667 434.5 264.667C434.5 264.667 465 224.667 498.5 241.167C532 257.667 522.5 287.167 522.5 287.167C522.5 287.167 568.5 224.667 649.5 222.167C730.5 219.667 769.5 272.667 769.5 272.667C784.556 270.133 793.118 272.344 808.5 279.667C808.5 279.667 789 237.167 820.5 216.167C852 195.167 879.5 222.167 879.5 222.167C879.5 222.167 876.5 80.1668 986 24.6667C1095.5 -30.8334 1193 24.6667 1193 24.6667V417.167H0V33.1667C15.8361 36.4835 19.4475 42.3641 19 58.1667C19 58.1667 117 -28.3333 211.5 18.1667Z" fill="#D9D9D9"/>
</svg>
