<svg width="1194" height="660" viewBox="0 0 1194 660" fill="none" xmlns="http://www.w3.org/2000/svg">
<path d="M503.12 530.439C508.517 523.21 518.017 521.661 522.258 535.078C503.12 452.491 592.015 451.975 606.515 483.463C612.515 448.362 637.014 446.297 648.014 463.331C645.762 435.493 671.271 389 721.012 389C756.511 389 838.009 419.971 817.01 506.691C872.581 499.067 892.435 539.166 894.668 572.764C906.947 556.418 942.406 535.082 986.005 580.507C983.172 569.15 982.605 545.715 1003 542.825C1023.4 539.934 1026.5 556.074 1025.5 564.505C1031 558.999 1044.5 552.942 1054.5 572.764C1075 562.639 1121.4 553.583 1143 598.356C1154.17 587.904 1180 576.508 1194 614.533V660H0.529019L0.529019 614.533V588.25C-1.97092 574.913 3.12895 553.583 43.528 574.955C40.6946 571.472 36.7279 562.44 43.528 554.181C50.328 545.922 60.3612 548.444 64.5277 550.737C56.3613 530.377 50.4281 486.766 92.0271 475.204C128.679 465.016 144.992 489.787 150.064 508.258C149.534 502.291 150.667 495.355 156.025 491.206C160.025 488.109 169.736 484.335 178.13 494.481C169.025 473.139 185.025 467.272 192.525 467.977C173.525 431.328 223.524 392.097 287.523 434.425C329.167 461.968 334.601 498.434 330.784 521.548C335.575 511.553 345.419 502.116 363.521 504.627C384.748 507.571 393.245 526.109 395.812 540.56C396.209 524.053 405.338 501.262 440.075 494.481C482.855 486.129 499.93 514.973 503.12 530.439Z" fill="white"/>
<path d="M1032.61 107.514C1036.71 102.019 1043.94 100.842 1047.16 111.041C1032.61 48.2629 1100.21 47.8705 1111.24 71.8057C1115.8 45.1238 1134.43 43.5543 1142.79 56.5029C1141.08 35.3417 1160.48 0 1198.31 0C1225.3 0 1287.28 23.5429 1271.31 89.4629C1313.57 83.6671 1328.67 114.148 1330.37 139.688C1339.71 127.262 1366.67 111.044 1399.83 145.573C1397.67 136.941 1397.24 119.127 1412.75 116.93C1428.27 114.732 1430.62 127.001 1429.86 133.41C1434.05 129.224 1444.31 124.62 1451.92 139.688C1467.51 131.991 1502.79 125.107 1519.22 159.141C1527.71 151.197 1547.35 142.534 1558 171.439V206H650.402L650.402 171.439V151.459C648.501 141.321 652.379 125.107 683.102 141.353C680.947 138.705 677.93 131.84 683.102 125.562C688.273 119.284 695.903 121.201 699.071 122.944C692.861 107.468 688.349 74.317 719.984 65.5276C747.856 57.7836 760.262 76.6131 764.119 90.6536C763.716 86.1178 764.577 80.8455 768.653 77.6914C771.694 75.3371 779.079 72.4685 785.462 80.1809C778.538 63.9581 790.706 59.4984 796.409 60.0343C781.961 32.1752 819.983 2.35429 868.652 34.5295C900.321 55.4663 904.454 83.1861 901.551 100.756C905.195 93.1581 912.681 85.9851 926.446 87.8933C942.589 90.1311 949.05 104.223 951.003 115.208C951.305 102.66 958.247 85.3358 984.663 80.1809C1017.2 73.8326 1030.18 95.7579 1032.61 107.514Z" fill="white" fill-opacity="0.24"/>
<path d="M-48.3931 208.514C-44.2887 203.019 -37.0641 201.842 -33.8388 212.041C-48.3931 149.263 19.209 148.87 30.2358 172.806C34.7985 146.124 53.4296 144.554 61.7945 157.503C60.0822 136.342 79.4807 101 117.307 101C144.303 101 206.28 124.543 190.311 190.463C232.571 184.667 247.669 215.148 249.367 240.688C258.705 228.262 285.671 212.044 318.826 246.573C316.672 237.941 316.241 220.127 331.754 217.93C347.267 215.732 349.625 228.001 348.864 234.41C353.047 230.224 363.313 225.62 370.917 240.688C386.506 232.991 421.791 226.107 438.217 260.141C446.709 252.197 466.354 243.534 477 272.439V307H-430.598L-430.598 252.459C-432.499 242.321 -428.621 226.107 -397.898 242.353C-400.053 239.705 -403.07 232.84 -397.898 226.562C-392.727 220.284 -385.097 222.201 -381.929 223.944C-388.139 208.468 -392.651 175.317 -361.016 166.528C-333.144 158.784 -320.738 177.613 -316.881 191.654C-317.284 187.118 -316.423 181.846 -312.347 178.691C-309.306 176.337 -301.921 173.469 -295.538 181.181C-302.462 164.958 -290.294 160.498 -284.591 161.034C-299.039 133.175 -261.017 103.354 -212.348 135.53C-180.679 156.466 -176.546 184.186 -179.449 201.756C-175.805 194.158 -168.319 186.985 -154.554 188.893C-138.411 191.131 -131.95 205.223 -129.997 216.208C-129.695 203.66 -122.753 186.336 -96.3365 181.181C-63.8035 174.833 -50.8188 196.758 -48.3931 208.514Z" fill="white" fill-opacity="0.24"/>
</svg>
