<svg width="1920" height="936" viewBox="0 0 1920 936" fill="none" xmlns="http://www.w3.org/2000/svg">
<rect x="94.5" y="7.5" width="1723" height="785" rx="81.5" fill="#606506" stroke="#535353" stroke-width="15"/>
<path d="M1769.76 734.5C1700.25 730 1699.9 721.257 1702.25 707.5C1704.61 693.744 1777.25 681.5 1794.75 689C1779.68 658.001 1684.75 699.5 1696.25 644C1699.37 628.937 1769.76 622 1800.25 641.5C1784.75 589.501 1703.43 644.011 1696.25 615C1691.34 595.114 1702.97 583.845 1720.75 579.18C1720.75 579.179 1720.75 579.179 1720.75 579.179C1733.05 574.357 1794.45 564.168 1810.84 571.286C1817.19 574.043 1823.82 577.963 1830.72 583.253C1834.07 585.822 1837.17 588.446 1840.03 591.113C1883.78 631.9 1888.25 651 1900.25 707.5C1910.75 767.5 1908.22 919.787 1919.75 936H1780.76C1780.76 936 1832.69 782 1808.76 775.5C1784.83 769 1769.76 734.5 1769.76 734.5Z" fill="#6852CE"/>
<path d="M1741.73 587.866C1730.73 585.197 1735.68 577.285 1739.53 573.662C1748.45 570.897 1759.43 568.736 1761.61 571.699C1763.8 574.661 1752.73 590.535 1741.73 587.866Z" fill="#D9D9D9"/>
<path d="M1769.01 578.902C1762.65 576.129 1766.47 571.877 1769.18 570.097C1774.86 569.371 1781.71 569.226 1782.72 571.245C1783.72 573.264 1775.37 581.675 1769.01 578.902Z" fill="#D9D9D9"/>
<path d="M1763.71 585.518C1769.31 586.335 1763.55 591.065 1761.81 593.05C1757.49 594.843 1755.78 595.875 1754.55 594.5C1753.33 593.126 1758.1 584.7 1763.71 585.518Z" fill="#D9D9D9"/>
<path d="M1863.13 629.88C1861.21 623.214 1866.93 623.451 1870.02 624.402C1874.2 628.315 1878.68 633.506 1877.76 635.567C1876.84 637.628 1865.04 636.547 1863.13 629.88Z" fill="#D9D9D9"/>
<path d="M1846.14 619.827C1843.74 609.12 1844 597.03 1848.8 598.82C1855.03 605.387 1865.19 613.915 1863.55 617.085C1861.92 620.256 1848.55 630.535 1846.14 619.827Z" fill="#D9D9D9"/>
<path d="M1857.72 629.645C1862.98 631.743 1861.43 645.111 1859.27 646.634C1854.65 647.375 1850.88 640.587 1850.01 638.964C1849.13 637.342 1852.46 627.546 1857.72 629.645Z" fill="#D9D9D9"/>
<path d="M1879.11 640.38C1884.78 640.318 1888.43 653.269 1887.01 655.5C1883.02 657.942 1876.95 653.102 1875.52 651.934C1874.1 650.766 1873.45 640.441 1879.11 640.38Z" fill="#D9D9D9"/>
<path d="M1867.34 639.775C1869.85 639.882 1871.76 644.046 1871.18 644.717C1869.47 645.397 1866.66 643.736 1866 643.336C1865.34 642.936 1864.82 639.667 1867.34 639.775Z" fill="#D9D9D9"/>
<path d="M1760.23 695.185C1758.43 700.555 1744.99 699.753 1743.35 697.679C1742.36 693.111 1748.92 688.963 1750.49 688.001C1752.06 687.039 1762.03 689.814 1760.23 695.185Z" fill="#D9D9D9"/>
<path d="M1750.65 705.35C1750.68 707.865 1746.63 710.006 1745.93 709.464C1745.15 707.79 1746.66 704.897 1747.02 704.217C1747.38 703.537 1750.62 702.835 1750.65 705.35Z" fill="#D9D9D9"/>
<path d="M1898.66 780.071C1900.89 773.501 1905.45 776.948 1907.45 779.493C1908.66 785.088 1909.38 791.905 1907.46 793.078C1905.53 794.25 1896.44 786.64 1898.66 780.071Z" fill="#D9D9D9"/>
<path d="M1887.29 764.496C1888.52 753.591 1899.3 736.74 1903.25 740C1907 748.244 1907.23 765.129 1904.64 767.591C1902.06 770.053 1886.07 775.402 1887.29 764.496Z" fill="#D9D9D9"/>
<path d="M1894.35 776.799C1897.48 781.52 1888.6 791.628 1885.95 791.649C1881.74 789.629 1882.5 781.899 1882.7 780.068C1882.91 778.237 1891.22 772.077 1894.35 776.799Z" fill="#D9D9D9"/>
<path d="M1905.83 797.803C1910.52 800.977 1906.15 813.705 1903.71 814.731C1899.04 814.468 1896.81 807.03 1896.3 805.259C1895.79 803.488 1901.13 794.628 1905.83 797.803Z" fill="#D9D9D9"/>
<path d="M1896.49 790.601C1898.49 792.12 1897.7 796.631 1896.84 796.853C1895.04 796.436 1893.68 793.473 1893.37 792.769C1893.05 792.065 1894.49 789.082 1896.49 790.601Z" fill="#D9D9D9"/>
<path d="M1904.85 823.902C1903.18 828.068 1898.27 830.873 1898.03 829.849C1898.5 826.938 1901.73 822.426 1902.5 821.368C1903.27 820.309 1906.51 819.736 1904.85 823.902Z" fill="#D9D9D9"/>
<path d="M1890.52 840.489C1892.74 833.92 1897.3 837.367 1899.31 839.911C1900.51 845.506 1901.24 852.323 1899.31 853.496C1897.38 854.669 1888.3 847.058 1890.52 840.489Z" fill="#D9D9D9"/>
<path d="M1878.54 820.964C1879.77 810.058 1883.96 798.715 1887.91 801.975C1891.66 810.219 1898.48 821.596 1895.89 824.058C1893.31 826.52 1877.32 831.87 1878.54 820.964Z" fill="#D9D9D9"/>
<path d="M1885.6 833.266C1888.73 837.987 1879.85 848.095 1877.2 848.116C1872.99 846.096 1873.75 838.365 1873.95 836.535C1874.16 834.704 1882.47 828.544 1885.6 833.266Z" fill="#D9D9D9"/>
<path d="M1898.93 870.753C1895.08 866.599 1902.21 855.189 1904.82 854.741C1909.3 856.052 1909.8 863.804 1909.89 865.644C1909.99 867.484 1902.78 874.906 1898.93 870.753Z" fill="#D9D9D9"/>
<path d="M1875.2 827.066C1875.44 829.862 1871.41 832.624 1870.64 832.086C1869.7 830.295 1871.02 826.934 1871.34 826.144C1871.66 825.353 1874.96 824.269 1875.2 827.066Z" fill="#D9D9D9"/>
<path d="M1908.64 842.592C1908.88 845.389 1904.86 848.151 1904.08 847.613C1903.14 845.821 1904.46 842.461 1904.78 841.67C1905.1 840.88 1908.4 839.796 1908.64 842.592Z" fill="#D9D9D9"/>
<path d="M1834.42 603.17C1836.05 601.252 1840.51 602.298 1840.68 603.168C1840.17 604.939 1837.13 606.134 1836.41 606.408C1835.69 606.683 1832.79 605.088 1834.42 603.17Z" fill="#D9D9D9"/>
<path d="M1840.18 612.427C1842.27 613.823 1840.82 615.867 1839.98 616.14C1838.16 615.832 1837.55 615.463 1837.19 614.78C1836.84 614.096 1838.09 611.032 1840.18 612.427Z" fill="#D9D9D9"/>
<path d="M1758.53 639.164C1752.62 635.527 1757 631.853 1759.93 630.47C1765.66 630.546 1772.46 631.364 1773.17 633.504C1773.89 635.643 1764.44 642.8 1758.53 639.164Z" fill="#D9D9D9"/>
<path d="M1745.42 635.17C1747.05 633.252 1751.51 634.298 1751.68 635.168C1751.17 636.939 1748.13 638.134 1747.41 638.408C1746.69 638.683 1743.79 637.088 1745.42 635.17Z" fill="#D9D9D9"/>
<path d="M1754.97 641.046C1757.06 642.442 1755.61 644.486 1754.77 644.759C1752.95 644.451 1752.34 644.082 1751.98 643.399C1751.63 642.715 1752.88 639.65 1754.97 641.046Z" fill="#D9D9D9"/>
<path d="M1811.79 818.965C1811.79 833.834 1790.87 902.517 1780.42 935H1822.74C1825.06 899.671 1829.71 825.395 1829.71 810.928C1829.71 792.845 1872.03 787.822 1853.61 786.315C1838.87 785.109 1831.54 772.752 1829.71 766.725C1820.25 750.483 1795.06 719.507 1769.96 725.535C1744.87 731.562 1713.7 723.023 1701.25 718C1716.39 736.485 1753.37 736.418 1769.96 734.074C1775.94 753.664 1788.88 764.213 1805.81 775.766C1822.74 787.319 1811.79 800.38 1811.79 818.965Z" fill="#473B7E"/>
<path d="M1764.75 669C1718.37 667.4 1699.43 657 1695.75 652C1693.42 658.5 1695.15 672.3 1720.75 675.5C1752.75 679.5 1783.7 672 1794.75 689C1797.92 683.794 1796.35 672.505 1764.75 669Z" fill="#473B7E"/>
<path d="M1731.25 614C1704.45 615.6 1696.42 609.667 1695.75 606.5C1693.75 612.667 1694.55 625 1713.75 625C1737.75 625 1790.72 612 1801.25 642.5C1802.25 613 1764.75 612 1731.25 614Z" fill="#473B7E"/>
<path d="M149.998 734.5C219.5 730 219.856 721.257 217.5 707.5C215.144 693.744 142.501 681.5 125.001 689C140.071 658.001 235.001 699.5 223.501 644C220.379 628.937 149.998 622 119.5 641.5C135.002 589.501 216.325 644.011 223.5 615C228.418 595.114 216.785 583.845 199.002 579.18C199.002 579.179 199.001 579.179 199 579.179C186.704 574.357 125.308 564.168 108.916 571.286C102.567 574.043 95.9342 577.963 89.0373 583.253C85.6869 585.822 82.5889 588.446 79.7277 591.113C35.9777 631.9 31.5001 651 19.5001 707.5C9.00008 767.5 11.5347 919.787 7.62939e-05 936H138.998C138.998 936 87.0677 782 110.998 775.5C134.929 769 149.998 734.5 149.998 734.5Z" fill="#6852CE"/>
<path d="M178.02 587.866C189.02 585.197 184.073 577.285 180.224 573.662C171.302 570.897 160.324 568.736 158.14 571.699C155.955 574.661 167.02 590.535 178.02 587.866Z" fill="#D9D9D9"/>
<path d="M150.746 578.902C157.102 576.129 153.281 571.877 150.575 570.097C144.899 569.371 138.045 569.226 137.039 571.245C136.034 573.264 144.389 581.675 150.746 578.902Z" fill="#D9D9D9"/>
<path d="M156.048 585.518C150.442 586.335 156.199 591.065 157.948 593.05C162.266 594.843 163.975 595.875 165.202 594.5C166.428 593.126 161.654 584.7 156.048 585.518Z" fill="#D9D9D9"/>
<path d="M56.6282 629.88C58.5409 623.214 52.8283 623.451 49.7329 624.402C45.5566 628.315 41.0785 633.506 41.9943 635.567C42.9101 637.628 54.7156 636.547 56.6282 629.88Z" fill="#D9D9D9"/>
<path d="M73.6083 619.827C76.0129 609.12 75.7567 597.03 70.955 598.82C64.7199 605.387 54.5621 613.915 56.1994 617.085C57.8367 620.256 71.2037 630.535 73.6083 619.827Z" fill="#D9D9D9"/>
<path d="M62.0346 629.645C56.7724 631.743 58.3209 645.111 60.4836 646.634C65.0995 647.375 68.8758 640.587 69.7489 638.964C70.6219 637.342 67.2967 627.546 62.0346 629.645Z" fill="#D9D9D9"/>
<path d="M40.6431 640.38C34.9782 640.318 31.3226 653.269 32.7428 655.5C36.7297 657.942 42.8052 653.102 44.2299 651.934C45.6546 650.766 46.308 640.441 40.6431 640.38Z" fill="#D9D9D9"/>
<path d="M52.4185 639.775C49.9056 639.882 47.9931 644.046 48.5734 644.717C50.2882 645.397 53.0931 643.736 53.7516 643.336C54.4101 642.936 54.9314 639.667 52.4185 639.775Z" fill="#D9D9D9"/>
<path d="M159.526 695.185C161.328 700.555 174.761 699.753 176.403 697.679C177.399 693.111 170.831 688.963 169.26 688.001C167.689 687.039 157.723 689.814 159.526 695.185Z" fill="#D9D9D9"/>
<path d="M169.105 705.35C169.073 707.865 173.123 710.006 173.826 709.464C174.601 707.79 173.098 704.897 172.735 704.217C172.373 703.537 169.138 702.835 169.105 705.35Z" fill="#D9D9D9"/>
<path d="M21.0908 780.071C18.8675 773.501 14.3059 776.948 12.303 779.493C11.0977 785.088 10.3721 791.905 12.2983 793.078C14.2246 794.25 23.3141 786.64 21.0908 780.071Z" fill="#D9D9D9"/>
<path d="M32.461 764.496C31.2364 753.591 20.4548 736.74 16.501 740C12.7529 748.244 12.5282 765.129 15.1113 767.591C17.6944 770.053 33.6856 775.402 32.461 764.496Z" fill="#D9D9D9"/>
<path d="M25.4016 776.799C22.2707 781.52 31.1549 791.628 33.8002 791.649C38.0163 789.629 37.2558 781.899 37.0498 780.068C36.8439 778.237 28.5324 772.077 25.4016 776.799Z" fill="#D9D9D9"/>
<path d="M13.9277 797.803C9.23552 800.977 13.6043 813.705 16.0426 814.731C20.7101 814.468 22.9489 807.03 23.4551 805.259C23.9614 803.488 18.6199 794.628 13.9277 797.803Z" fill="#D9D9D9"/>
<path d="M23.264 790.601C21.2594 792.12 22.0577 796.631 22.9172 796.853C24.7141 796.436 26.074 793.473 26.3876 792.769C26.7012 792.065 25.2686 789.082 23.264 790.601Z" fill="#D9D9D9"/>
<path d="M14.9066 823.902C16.5701 828.068 21.4814 830.873 21.7191 829.849C21.2567 826.938 18.0233 822.426 17.2553 821.368C16.4874 820.309 13.2432 819.736 14.9066 823.902Z" fill="#D9D9D9"/>
<path d="M29.2354 840.489C27.0121 833.92 22.4505 837.367 20.4476 839.911C19.2423 845.506 18.5166 852.323 20.4429 853.496C22.3691 854.669 31.4587 847.058 29.2354 840.489Z" fill="#D9D9D9"/>
<path d="M41.2093 820.964C39.9847 810.058 35.7937 798.715 31.8399 801.975C28.0919 810.219 21.2765 821.596 23.8596 824.058C26.4427 826.52 42.4339 831.87 41.2093 820.964Z" fill="#D9D9D9"/>
<path d="M34.1516 833.266C31.0207 837.987 39.9049 848.095 42.5502 848.116C46.7663 846.096 46.0058 838.365 45.7998 836.535C45.5939 834.704 37.2824 828.544 34.1516 833.266Z" fill="#D9D9D9"/>
<path d="M20.8258 870.753C24.6787 866.599 17.5452 855.189 14.9381 854.741C10.4509 856.052 9.95186 863.804 9.85918 865.644C9.7665 867.484 16.9729 874.906 20.8258 870.753Z" fill="#D9D9D9"/>
<path d="M44.5536 827.066C44.3118 829.862 48.3395 832.624 49.1138 832.086C50.0562 830.295 48.7354 826.934 48.4151 826.144C48.0948 825.353 44.7953 824.269 44.5536 827.066Z" fill="#D9D9D9"/>
<path d="M11.1122 842.592C10.8704 845.389 14.8981 848.151 15.6724 847.613C16.6148 845.821 15.294 842.461 14.9737 841.67C14.6534 840.88 11.3539 839.796 11.1122 842.592Z" fill="#D9D9D9"/>
<path d="M85.3325 603.17C83.7054 601.252 79.2445 602.298 79.0705 603.168C79.5861 604.939 82.6193 606.134 83.3392 606.408C84.0591 606.683 86.9596 605.088 85.3325 603.17Z" fill="#D9D9D9"/>
<path d="M79.5718 612.427C77.4794 613.823 78.9308 615.867 79.7753 616.14C81.5941 615.832 82.2038 615.463 82.5592 614.78C82.9146 614.096 81.6642 611.032 79.5718 612.427Z" fill="#D9D9D9"/>
<path d="M161.222 639.164C167.128 635.527 162.748 631.853 159.82 630.47C154.097 630.546 147.291 631.364 146.578 633.504C145.866 635.643 155.317 642.8 161.222 639.164Z" fill="#D9D9D9"/>
<path d="M174.332 635.17C172.705 633.252 168.245 634.298 168.071 635.168C168.586 636.939 171.619 638.134 172.339 638.408C173.059 638.683 175.96 637.088 174.332 635.17Z" fill="#D9D9D9"/>
<path d="M164.784 641.046C162.691 642.442 164.143 644.486 164.987 644.759C166.806 644.451 167.416 644.082 167.771 643.399C168.126 642.715 166.876 639.65 164.784 641.046Z" fill="#D9D9D9"/>
<path d="M107.968 818.965C107.968 833.834 128.879 902.517 139.335 935H97.0139C94.6904 899.671 90.0434 825.395 90.0434 810.928C90.0434 792.845 47.7225 787.822 66.1446 786.315C80.8822 785.109 88.2178 772.752 90.0434 766.725C99.5033 750.483 124.697 719.507 149.79 725.535C174.884 731.562 206.052 723.023 218.5 718C203.364 736.485 166.387 736.418 149.79 734.074C143.816 753.664 130.871 764.213 113.942 775.766C97.0139 787.319 107.968 800.38 107.968 818.965Z" fill="#473B7E"/>
<path d="M155 669C201.388 667.4 220.328 657 224 652C226.333 658.5 224.6 672.3 199 675.5C167 679.5 136.057 672 125 689C121.833 683.794 123.4 672.505 155 669Z" fill="#473B7E"/>
<path d="M188.5 614C215.3 615.6 223.333 609.667 224 606.5C226 612.667 225.2 625 206 625C182 625 129.032 612 118.5 642.5C117.5 613 155 612 188.5 614Z" fill="#473B7E"/>
</svg>
