<svg width="706" height="638" viewBox="0 0 706 638" fill="none" xmlns="http://www.w3.org/2000/svg">
<ellipse cx="457" cy="634" rx="84" ry="4" fill="#5B5B5B"/>
<ellipse cx="78.5" cy="628" rx="59.5" ry="9" fill="#5B5B5B"/>
<path d="M278.589 54.2444C285.519 86.3208 287.864 91.0985 301 112.5C332.964 106.481 343.143 108.639 348.5 78.5C321.647 64.2663 310.997 55.8544 280.778 51.8493C279.418 51.6691 278.299 52.9039 278.589 54.2444Z" fill="white"/>
<path d="M380.739 631.627C370.673 621.401 367.221 611.528 364.199 593.679C211.72 581.179 161.719 401.679 255.218 321.679L275.096 326.648C288.494 329.998 302.108 322.009 305.718 308.679C305.718 308.679 284.681 307.679 275.699 304.179C266.717 300.679 218.192 261.679 227.699 173.679C237.206 85.6789 345.718 37.6789 403.199 41.1789C460.68 44.6789 508.699 77.1788 508.699 77.1788C657.199 203.679 704.61 371.448 531.218 554.179C536.396 588.054 538.986 608.257 527.731 629.258C525.376 633.652 519.859 635.041 515.437 632.74C488.304 618.621 475.49 607.642 464.699 584.679C448.233 591.907 438.705 594.158 420.699 593.679C415.734 611.176 409.37 620.648 392.382 632.538C388.766 635.069 383.835 634.773 380.739 631.627Z" fill="url(#paint0_radial_2402_42)"/>
<path d="M507.5 371C500.706 347.76 507.5 309 507.5 309L613 284C613 284 697.5 390.5 687.5 449C677.5 507.5 586 582 563.5 580.5C541 579 543 560 543 560C551.324 559.664 555.835 558.442 563.5 553C563.5 553 569.927 548.476 566 541.5C558.204 527.65 556.48 556.179 546.481 556.179C536.481 556.179 568.449 463.012 553 419C541.656 386.682 517.11 403.875 507.5 371Z" fill="url(#paint1_radial_2402_42)"/>
<circle cx="374" cy="186" r="133" fill="white"/>
<ellipse cx="322.152" cy="247.371" rx="43.5" ry="73" transform="rotate(-41.951 322.152 247.371)" fill="#363C48"/>
<ellipse cx="332.101" cy="233.361" rx="14.0939" ry="30.8437" transform="rotate(-41.951 332.101 233.361)" fill="#C6CDDB"/>
<path d="M496.209 1.61697C468.993 20.941 458.577 32.5449 444 53C462.022 80.0767 475.162 86.836 505 80C507.619 49.7165 507.596 32.3358 499.269 2.6923C498.898 1.37191 497.327 0.822965 496.209 1.61697Z" fill="white"/>
<path d="M403.5 52.5059C362 28.5058 337.529 32.8049 308 43.5059C308 43.5059 323 21.5059 355 21.0058C387 20.5057 403.5 52.5059 403.5 52.5059Z" fill="#7F1900"/>
<path d="M510.019 306C510.019 306 503.226 344.76 510.019 368C519.63 400.875 544.176 383.682 555.52 416C570.968 460.012 537.52 553.5 547.519 553.5" stroke="#D33D11" stroke-width="4" stroke-linecap="round"/>
<path d="M678.173 468.116C674.852 452.987 678.7 444.664 688.221 431.094C688.604 430.548 689.407 430.524 689.821 431.047L702.601 447.21C704.423 449.515 703.875 452.886 701.417 454.495L679.679 468.723C679.101 469.102 678.322 468.791 678.173 468.116Z" fill="#E6A48C"/>
<path d="M584.682 180.791C571.05 190.064 573.095 216.831 589.249 240.576C603.085 260.915 612.3 266.529 636.719 269.5C627.5 230.5 618.873 212.354 598.5 177.776C593.324 177.208 588.574 178.143 584.682 180.791Z" fill="#C94222"/>
<ellipse cx="562.512" cy="180.684" rx="7.72387" ry="11.314" transform="rotate(-31.6489 562.512 180.684)" fill="#C94222"/>
<path d="M560.313 151.123C560.522 160.786 568.749 168.445 578.687 168.23C582.829 168.141 586.008 166.352 589 164C581.986 153.143 577.208 147.126 567.998 136.454C563.289 139.703 560.183 145.091 560.313 151.123Z" fill="#C94222"/>
<path d="M123.077 451.771C121.28 460.039 120.418 461.738 116.723 467.918C107.089 466.056 104.021 466.723 102.406 457.4C109.917 453.315 113.222 450.78 120.937 449.446C122.272 449.215 123.369 450.43 123.077 451.771Z" fill="white"/>
<path d="M93.7993 626.653C96.8379 623.498 98.7924 614.947 98.7924 614.947C145.927 622.34 186.931 539.34 131.692 531.04L120.446 534.84C116.401 535.873 112.447 528.721 116.447 527.03C120.446 525.34 122.797 526.722 125.509 525.642C128.22 524.562 142.869 512.532 139.999 485.386C137.129 458.24 104.371 443.433 87.0191 444.512C69.6667 445.592 55.1707 455.618 55.1707 455.618C10.3414 494.64 -7.56836 565.84 58.6148 608.34C57.0516 618.789 56.2697 625.021 59.6674 631.5C60.3782 632.855 62.5966 632.21 63.9316 631.5C72.1228 627.144 75.991 623.758 79.2485 616.674C79.9316 616.674 81.5 615.5 85 616C86.4075 621.069 86.434 622.649 89.6226 626.213C90.0561 626.698 90.535 627.18 91.161 627.355C92.0844 627.614 93.0978 627.381 93.7993 626.653Z" fill="#AF4128"/>
<path d="M54.5865 547.915C56.6373 540.746 54.5865 528.79 54.5865 528.79L22.7382 521.078C22.7382 521.078 -2.77075 553.931 0.248047 571.977C3.26685 590.023 30.8888 613.004 37.6812 612.542C44.4735 612.079 43.8697 606.218 43.8697 606.218C41.3569 606.114 39.9951 605.737 37.6812 604.058C37.6812 604.058 35.7409 602.663 36.9265 600.511C39.28 596.239 39.8002 605.039 42.819 605.039C45.8377 605.039 36.1873 576.299 40.8509 562.722C44.2753 552.753 51.6853 558.057 54.5865 547.915Z" fill="#AF4128"/>
<ellipse cx="40" cy="41.5" rx="40" ry="41.5" transform="matrix(-1 0 0 1 134.984 449.118)" fill="white"/>
<ellipse cx="13.2662" cy="22.3243" rx="13.2662" ry="22.3243" transform="matrix(-0.824875 0.565316 0.586439 0.809994 110.871 449)" fill="#363C48"/>
<ellipse cx="4.29821" cy="9.4324" rx="4.29821" ry="9.4324" transform="matrix(-0.735016 0.678049 0.696813 0.717253 116.303 462)" fill="#C6CDDB"/>
<path d="M48.9666 444.659C57.4785 446.948 61.5507 449.075 67.4939 452.987C65.3413 462.615 62.3546 465.964 53.1513 467.295C49.3936 459.612 47.4951 454.824 46.5419 446.742C46.3814 445.381 47.6436 444.303 48.9666 444.659Z" fill="white"/>
<path d="M81.9851 447.999C94.5872 440.381 96.0135 440.102 104.98 443.499C104.98 443.499 102.975 438.104 96.7128 438.001C90.4511 437.898 81.9851 447.999 81.9851 447.999Z" fill="#7F1900"/>
<path d="M54.0671 528.118C54.0671 528.118 56.131 540.02 54.0671 547.156C51.1473 557.251 43.6899 551.972 40.2435 561.895C35.5501 575.41 45.7121 604.118 42.6741 604.118" stroke="#963017" stroke-width="2" stroke-linecap="round"/>
<ellipse cx="2.34499" cy="3.47532" rx="2.34499" ry="3.47532" transform="matrix(-0.845095 -0.534616 -0.514854 0.857278 41.6738 487.284)" fill="#C94222"/>
<defs>
<radialGradient id="paint0_radial_2402_42" cx="0" cy="0" r="1" gradientUnits="userSpaceOnUse" gradientTransform="translate(455 282) rotate(55.9845) scale(463.876 377.554)">
<stop stop-color="#ED7044"/>
<stop offset="1" stop-color="#AF2E00"/>
</radialGradient>
<radialGradient id="paint1_radial_2402_42" cx="0" cy="0" r="1" gradientUnits="userSpaceOnUse" gradientTransform="translate(455 282) rotate(55.9845) scale(463.876 377.554)">
<stop stop-color="#ED7044"/>
<stop offset="1" stop-color="#AF2E00"/>
</radialGradient>
</defs>
</svg>
